<svg width="56" height="56" viewBox="0 0 56 56" fill="none" xmlns="http://www.w3.org/2000/svg">
    <g filter="url(#filter0_bii_109_430)">
        <circle cx="28" cy="28" r="28" fill="#2D303D" fill-opacity="0.2"/>
    </g>
    <path fill-rule="evenodd" clip-rule="evenodd" d="M37.4463 19.1602C37.9803 19.694 38.397 20.3333 38.6696 21.0374C38.984 21.8727 39.1517 22.756 39.1654 23.6484C39.2314 24.7755 39.2314 25.1406 39.2314 28.0178C39.2314 30.8949 39.2161 31.2541 39.1654 32.3871C39.1478 33.2681 38.9817 34.1372 38.672 34.9616C38.3989 35.6656 37.9822 36.305 37.4483 36.8389C36.9144 37.3728 36.275 37.7895 35.571 38.0626C34.7469 38.3713 33.8764 38.5381 32.9965 38.556C31.8718 38.6208 31.5032 38.6208 28.6272 38.6208C25.7512 38.6208 25.392 38.6055 24.2578 38.556C23.3761 38.527 22.5059 38.3478 21.6845 38.026C20.9803 37.7535 20.3407 37.337 19.8065 36.8033C19.2724 36.2696 18.8555 35.6303 18.5824 34.9263C18.2726 34.1007 18.1066 33.2315 18.0889 32.3506C18.0229 31.2235 18.0229 30.8573 18.0229 27.9813C18.0229 25.1041 18.0383 24.7449 18.0889 23.6119C18.1061 22.732 18.273 21.8614 18.5824 21.0374C18.8547 20.3332 19.2712 19.6936 19.8052 19.1598C20.3393 18.626 20.979 18.2097 21.6833 17.9376C22.5063 17.6274 23.3762 17.4601 24.2555 17.443C25.3802 17.3794 25.7488 17.3794 28.6248 17.3794C31.5008 17.3794 31.86 17.3935 32.9942 17.443C33.8741 17.4611 34.7446 17.6283 35.5687 17.9376C36.2728 18.21 36.9124 18.6264 37.4463 19.1602ZM36.8689 34.2514C37.1037 33.6146 37.2275 32.9422 37.2351 32.2635V32.2646H37.2481C37.2987 31.1388 37.2987 30.8302 37.2987 27.9616V27.9612C37.2987 25.0911 37.2858 24.7767 37.2351 23.6567C37.2242 22.9855 37.1003 22.3211 36.8689 21.691C36.6919 21.233 36.4211 20.817 36.0739 20.4698C35.7266 20.1225 35.3107 19.8518 34.8526 19.6748C34.2229 19.4405 33.5576 19.3166 32.8858 19.3085C31.7469 19.2437 31.4525 19.2437 28.5824 19.2437C25.7123 19.2437 25.3978 19.2579 24.2778 19.3085C23.6066 19.3179 22.9418 19.4418 22.3122 19.6748C21.383 20.0304 20.6469 20.7618 20.2877 21.691C20.0529 22.3275 19.9291 22.9995 19.9214 23.6779C19.859 24.8191 19.859 25.1123 19.859 27.9824C19.859 30.8514 19.8708 31.167 19.9214 32.2858C19.9324 32.9569 20.0562 33.6214 20.2877 34.2514C20.4654 34.7103 20.7373 35.1268 21.0861 35.4739C21.4348 35.821 21.8525 36.091 22.3122 36.2665C22.9415 36.5007 23.6064 36.6246 24.2778 36.6328C25.4179 36.6976 25.7111 36.6976 28.5824 36.6976C31.4513 36.6976 31.767 36.6846 32.8858 36.6328C33.5575 36.6241 34.2228 36.5002 34.8526 36.2665C35.3107 36.0899 35.7267 35.8194 36.074 35.4724C36.4212 35.1253 36.692 34.7094 36.8689 34.2514ZM34.2803 23.5978C34.9814 23.5978 35.5499 23.0294 35.5499 22.3282C35.5499 21.6271 34.9814 21.0587 34.2803 21.0587C33.5791 21.0587 33.0107 21.6271 33.0107 22.3282C33.0107 23.0294 33.5791 23.5978 34.2803 23.5978ZM28.6189 22.5285C27.1746 22.5285 25.7894 23.1022 24.7682 24.1235C23.7469 25.1448 23.1731 26.5299 23.1731 27.9742C23.1731 29.4186 23.7469 30.8037 24.7682 31.825C25.7894 32.8463 27.1746 33.42 28.6189 33.42C30.0632 33.42 31.4484 32.8463 32.4697 31.825C33.491 30.8037 34.0647 29.4186 34.0647 27.9742C34.0647 26.5299 33.491 25.1448 32.4697 24.1235C31.4484 23.1022 30.0632 22.5285 28.6189 22.5285ZM28.6189 31.5109C27.6806 31.5109 26.7807 31.1382 26.1173 30.4747C25.4538 29.8112 25.081 28.9114 25.081 27.9731C25.081 27.0348 25.4538 26.1349 26.1173 25.4714C26.7807 24.8079 27.6806 24.4352 28.6189 24.4352C29.5572 24.4352 30.4571 24.8079 31.1206 25.4714C31.7841 26.1349 32.1568 27.0348 32.1568 27.9731C32.1568 28.9114 31.7841 29.8112 31.1206 30.4747C30.4571 31.1382 29.5572 31.5109 28.6189 31.5109Z" fill="url(#paint0_linear_109_430)"/>
    <defs>
        <filter id="filter0_bii_109_430" x="-30" y="-30" width="116" height="116" filterUnits="userSpaceOnUse" color-interpolation-filters="sRGB">
            <feFlood flood-opacity="0" result="BackgroundImageFix"/>
            <feGaussianBlur in="BackgroundImage" stdDeviation="15"/>
            <feComposite in2="SourceAlpha" operator="in" result="effect1_backgroundBlur_109_430"/>
            <feBlend mode="normal" in="SourceGraphic" in2="effect1_backgroundBlur_109_430" result="shape"/>
            <feColorMatrix in="SourceAlpha" type="matrix" values="0 0 0 0 0 0 0 0 0 0 0 0 0 0 0 0 0 0 127 0" result="hardAlpha"/>
            <feOffset dy="2"/>
            <feGaussianBlur stdDeviation="2"/>
            <feComposite in2="hardAlpha" operator="arithmetic" k2="-1" k3="1"/>
            <feColorMatrix type="matrix" values="0 0 0 0 1 0 0 0 0 1 0 0 0 0 1 0 0 0 0.1 0"/>
            <feBlend mode="normal" in2="shape" result="effect2_innerShadow_109_430"/>
            <feColorMatrix in="SourceAlpha" type="matrix" values="0 0 0 0 0 0 0 0 0 0 0 0 0 0 0 0 0 0 127 0" result="hardAlpha"/>
            <feOffset dy="-5"/>
            <feGaussianBlur stdDeviation="6"/>
            <feComposite in2="hardAlpha" operator="arithmetic" k2="-1" k3="1"/>
            <feColorMatrix type="matrix" values="0 0 0 0 0.564706 0 0 0 0 0.054902 0 0 0 0 0.690196 0 0 0 0.35 0"/>
            <feBlend mode="normal" in2="effect2_innerShadow_109_430" result="effect3_innerShadow_109_430"/>
        </filter>
        <linearGradient id="paint0_linear_109_430" x1="35.7693" y1="18.3653" x2="19.7489" y2="36.8514" gradientUnits="userSpaceOnUse">
            <stop offset="0.17301" stop-color="#4967D5"/>
            <stop offset="0.688933" stop-color="#DB2E7D"/>
            <stop offset="1" stop-color="#FFAF00"/>
        </linearGradient>
    </defs>
</svg>
