<svg width="18" height="18" fill="none" xmlns="http://www.w3.org/2000/svg"><path fill-rule="evenodd" clip-rule="evenodd" d="M1.63 8.678c0-3.639 3.401-6.428 7.382-6.428 3.98 0 7.38 2.79 7.38 6.428s-3.4 6.428-7.38 6.428a8.365 8.365 0 01-2.519-.384c-.929.867-2.278 1.284-3.93 1.349a.925.925 0 01-.875-1.3c.4-.894.915-1.92.976-2.814a5.766 5.766 0 01-1.033-3.28zm7.382-5.142c-3.462 0-6.095 2.39-6.095 5.142 0 .988.33 1.915.914 2.7a.644.644 0 01.126.383c0 1.05-.418 2.042-.845 2.982 1.322-.14 2.19-.563 2.712-1.179a.643.643 0 01.716-.185 7.03 7.03 0 002.472.441c3.462 0 6.095-2.39 6.095-5.142 0-2.752-2.633-5.142-6.095-5.142z" fill="#fff"/></svg>