<svg width="56" height="56" fill="none" xmlns="http://www.w3.org/2000/svg"><path d="M36.026 28.723l1.035-6.756h-6.47v-4.384c0-1.848.903-3.651 3.801-3.651h2.941V8.18s-2.668-.456-5.22-.456c-5.328 0-8.81 3.236-8.81 9.094v5.15h-5.924v6.756h5.923v16.333h7.289V28.724l5.435-.001z" fill="url(#paint0_linear_109_421)"/><g filter="url(#filter0_bii_109_421)"><circle cx="28" cy="28" r="28" fill="#2D303D" fill-opacity=".2"/></g><path d="M32.516 29.327l.59-3.844h-3.689v-2.495c0-1.051.515-2.077 2.167-2.077h1.677V17.64s-1.521-.26-2.976-.26c-3.038 0-5.023 1.842-5.023 5.175v2.93h-3.377v3.844h3.377v9.293h4.155v-9.293l3.099-.001z" fill="url(#paint1_linear_109_421)"/><defs><linearGradient id="paint0_linear_109_421" x1="27.356" y1="7.724" x2="27.356" y2="45.057" gradientUnits="userSpaceOnUse"><stop stop-color="#1B77F2"/><stop offset="1" stop-color="#62E3FF"/></linearGradient><linearGradient id="paint1_linear_109_421" x1="27.573" y1="17.379" x2="27.573" y2="38.621" gradientUnits="userSpaceOnUse"><stop stop-color="#1B77F2"/><stop offset="1" stop-color="#62E3FF"/></linearGradient><filter id="filter0_bii_109_421" x="-30" y="-30" width="116" height="116" filterUnits="userSpaceOnUse" color-interpolation-filters="sRGB"><feFlood flood-opacity="0" result="BackgroundImageFix"/><feGaussianBlur in="BackgroundImage" stdDeviation="15"/><feComposite in2="SourceAlpha" operator="in" result="effect1_backgroundBlur_109_421"/><feBlend in="SourceGraphic" in2="effect1_backgroundBlur_109_421" result="shape"/><feColorMatrix in="SourceAlpha" values="0 0 0 0 0 0 0 0 0 0 0 0 0 0 0 0 0 0 127 0" result="hardAlpha"/><feOffset dy="2"/><feGaussianBlur stdDeviation="2"/><feComposite in2="hardAlpha" operator="arithmetic" k2="-1" k3="1"/><feColorMatrix values="0 0 0 0 1 0 0 0 0 1 0 0 0 0 1 0 0 0 0.1 0"/><feBlend in2="shape" result="effect2_innerShadow_109_421"/><feColorMatrix in="SourceAlpha" values="0 0 0 0 0 0 0 0 0 0 0 0 0 0 0 0 0 0 127 0" result="hardAlpha"/><feOffset dy="-5"/><feGaussianBlur stdDeviation="6"/><feComposite in2="hardAlpha" operator="arithmetic" k2="-1" k3="1"/><feColorMatrix values="0 0 0 0 0.0414556 0 0 0 0 0.509132 0 0 0 0 0.796115 0 0 0 0.35 0"/><feBlend in2="effect2_innerShadow_109_421" result="effect3_innerShadow_109_421"/></filter></defs></svg>