<?xml version="1.0" encoding="utf-8"?><svg viewBox="0 0 233 233" xmlns="http://www.w3.org/2000/svg" xmlns:xlink="http://www.w3.org/1999/xlink"><style>:root>svg{display:none}:root>svg:target{display:block}</style><svg fill="none" viewBox="0 0 18 18" id="chat" xmlns="http://www.w3.org/2000/svg"><path fill-rule="evenodd" clip-rule="evenodd" d="M1.63 8.678c0-3.639 3.401-6.428 7.382-6.428 3.98 0 7.38 2.79 7.38 6.428s-3.4 6.428-7.38 6.428a8.365 8.365 0 01-2.519-.384c-.929.867-2.278 1.284-3.93 1.349a.925.925 0 01-.875-1.3c.4-.894.915-1.92.976-2.814a5.766 5.766 0 01-1.033-3.28zm7.382-5.142c-3.462 0-6.095 2.39-6.095 5.142 0 .988.33 1.915.914 2.7.082.111.126.245.126.383 0 1.05-.418 2.042-.845 2.982 1.322-.14 2.19-.563 2.712-1.179a.643.643 0 01.716-.185 7.03 7.03 0 002.472.441c3.462 0 6.095-2.39 6.095-5.142 0-2.752-2.633-5.142-6.095-5.142z" fill="#fff"/></svg><svg fill="none" viewBox="0 0 56 56" id="facebook" xmlns="http://www.w3.org/2000/svg"><path d="M36.026 28.723l1.035-6.756h-6.47v-4.384c0-1.848.903-3.651 3.801-3.651h2.941V8.18s-2.668-.456-5.22-.456c-5.328 0-8.81 3.236-8.81 9.094v5.15h-5.924v6.756h5.923v16.333h7.289V28.724l5.435-.001z" fill="url(#bpaint0_linear_109_421)"/><g filter="url(#bfilter0_bii_109_421)"><circle cx="28" cy="28" r="28" fill="#2D303D" fill-opacity=".2"/></g><path d="M32.516 29.327l.59-3.844h-3.689v-2.495c0-1.051.515-2.077 2.167-2.077h1.677V17.64s-1.521-.26-2.976-.26c-3.038 0-5.023 1.842-5.023 5.175v2.93h-3.377v3.844h3.377v9.293h4.155v-9.293l3.099-.001z" fill="url(#bpaint1_linear_109_421)"/><defs><linearGradient id="bpaint0_linear_109_421" x1="27.356" y1="7.724" x2="27.356" y2="45.057" gradientUnits="userSpaceOnUse"><stop stop-color="#1B77F2"/><stop offset="1" stop-color="#62E3FF"/></linearGradient><linearGradient id="bpaint1_linear_109_421" x1="27.573" y1="17.379" x2="27.573" y2="38.621" gradientUnits="userSpaceOnUse"><stop stop-color="#1B77F2"/><stop offset="1" stop-color="#62E3FF"/></linearGradient><filter id="bfilter0_bii_109_421" x="-30" y="-30" width="116" height="116" filterUnits="userSpaceOnUse" color-interpolation-filters="sRGB"><feFlood flood-opacity="0" result="BackgroundImageFix"/><feGaussianBlur in="BackgroundImage" stdDeviation="15"/><feComposite in2="SourceAlpha" operator="in" result="effect1_backgroundBlur_109_421"/><feBlend in="SourceGraphic" in2="effect1_backgroundBlur_109_421" result="shape"/><feColorMatrix in="SourceAlpha" values="0 0 0 0 0 0 0 0 0 0 0 0 0 0 0 0 0 0 127 0" result="hardAlpha"/><feOffset dy="2"/><feGaussianBlur stdDeviation="2"/><feComposite in2="hardAlpha" operator="arithmetic" k2="-1" k3="1"/><feColorMatrix values="0 0 0 0 1 0 0 0 0 1 0 0 0 0 1 0 0 0 0.1 0"/><feBlend in2="shape" result="effect2_innerShadow_109_421"/><feColorMatrix in="SourceAlpha" values="0 0 0 0 0 0 0 0 0 0 0 0 0 0 0 0 0 0 127 0" result="hardAlpha"/><feOffset dy="-5"/><feGaussianBlur stdDeviation="6"/><feComposite in2="hardAlpha" operator="arithmetic" k2="-1" k3="1"/><feColorMatrix values="0 0 0 0 0.0414556 0 0 0 0 0.509132 0 0 0 0 0.796115 0 0 0 0.35 0"/><feBlend in2="effect2_innerShadow_109_421" result="effect3_innerShadow_109_421"/></filter></defs></svg><svg fill="none" viewBox="0 0 56 56" id="instagram" xmlns="http://www.w3.org/2000/svg"><g filter="url(#cfilter0_bii_109_430)"><circle cx="28" cy="28" r="28" fill="#2D303D" fill-opacity=".2"/></g><path fill-rule="evenodd" clip-rule="evenodd" d="M37.446 19.16c.534.534.951 1.173 1.224 1.877a7.75 7.75 0 01.495 2.611c.066 1.128.066 1.493.066 4.37s-.015 3.236-.066 4.37a7.754 7.754 0 01-.493 2.574 5.434 5.434 0 01-3.101 3.1 7.79 7.79 0 01-2.575.494c-1.124.065-1.493.065-4.369.065-2.876 0-3.235-.016-4.37-.065a7.753 7.753 0 01-2.573-.53 5.43 5.43 0 01-3.102-3.1 7.767 7.767 0 01-.493-2.575c-.066-1.127-.066-1.494-.066-4.37 0-2.877.015-3.236.066-4.37.017-.879.184-1.75.493-2.574a5.418 5.418 0 013.101-3.1 7.718 7.718 0 012.573-.494c1.124-.064 1.493-.064 4.369-.064 2.876 0 3.235.014 4.37.064.88.018 1.75.185 2.574.495a5.423 5.423 0 011.877 1.222zm-.577 15.091c.235-.636.358-1.309.366-1.987h.013c.05-1.125.05-1.434.05-4.302 0-2.87-.012-3.185-.063-4.305a5.984 5.984 0 00-.366-1.966 3.523 3.523 0 00-2.016-2.016 5.842 5.842 0 00-1.967-.367c-1.14-.064-1.434-.064-4.304-.064s-3.184.014-4.304.064a5.902 5.902 0 00-1.966.367 3.517 3.517 0 00-2.024 2.016 5.935 5.935 0 00-.367 1.987c-.062 1.141-.062 1.434-.062 4.304s.012 3.185.062 4.304c.011.67.135 1.335.367 1.965a3.515 3.515 0 002.024 2.016 5.84 5.84 0 001.966.366c1.14.065 1.433.065 4.304.065 2.87 0 3.185-.013 4.304-.065a5.872 5.872 0 001.967-.367 3.519 3.519 0 002.016-2.015zM34.28 23.598a1.27 1.27 0 100-2.54 1.27 1.27 0 000 2.54zm-5.661-1.07a5.445 5.445 0 100 10.891 5.445 5.445 0 000-10.89zm0 8.983a3.538 3.538 0 110-7.075 3.538 3.538 0 010 7.075z" fill="url(#cpaint0_linear_109_430)"/><defs><linearGradient id="cpaint0_linear_109_430" x1="35.769" y1="18.365" x2="19.749" y2="36.851" gradientUnits="userSpaceOnUse"><stop offset=".173" stop-color="#4967D5"/><stop offset=".689" stop-color="#DB2E7D"/><stop offset="1" stop-color="#FFAF00"/></linearGradient><filter id="cfilter0_bii_109_430" x="-30" y="-30" width="116" height="116" filterUnits="userSpaceOnUse" color-interpolation-filters="sRGB"><feFlood flood-opacity="0" result="BackgroundImageFix"/><feGaussianBlur in="BackgroundImage" stdDeviation="15"/><feComposite in2="SourceAlpha" operator="in" result="effect1_backgroundBlur_109_430"/><feBlend in="SourceGraphic" in2="effect1_backgroundBlur_109_430" result="shape"/><feColorMatrix in="SourceAlpha" values="0 0 0 0 0 0 0 0 0 0 0 0 0 0 0 0 0 0 127 0" result="hardAlpha"/><feOffset dy="2"/><feGaussianBlur stdDeviation="2"/><feComposite in2="hardAlpha" operator="arithmetic" k2="-1" k3="1"/><feColorMatrix values="0 0 0 0 1 0 0 0 0 1 0 0 0 0 1 0 0 0 0.1 0"/><feBlend in2="shape" result="effect2_innerShadow_109_430"/><feColorMatrix in="SourceAlpha" values="0 0 0 0 0 0 0 0 0 0 0 0 0 0 0 0 0 0 127 0" result="hardAlpha"/><feOffset dy="-5"/><feGaussianBlur stdDeviation="6"/><feComposite in2="hardAlpha" operator="arithmetic" k2="-1" k3="1"/><feColorMatrix values="0 0 0 0 0.564706 0 0 0 0 0.054902 0 0 0 0 0.690196 0 0 0 0.35 0"/><feBlend in2="effect2_innerShadow_109_430" result="effect3_innerShadow_109_430"/></filter></defs></svg><svg fill="none" viewBox="0 0 233 233" id="product-1" xmlns="http://www.w3.org/2000/svg"><g style="mix-blend-mode:hard-light" filter="url(#dfilter0_f_764_95)" stroke="#773EE3" stroke-width="4.438"><path d="M133.896 90.46c0-4.53 3.674-8.21 8.199-8.21s8.199 3.68 8.199 8.21c0 4.53-3.674 8.21-8.199 8.21s-8.199-3.68-8.199-8.21z"/><path clip-rule="evenodd" d="M128.01 88.315a16.062 16.062 0 00-.205 2.555c0 7.665 6.192 13.861 13.813 13.861.851 0 1.667-.098 2.518-.235v27.488c0 11.552-6.804 18.399-18.372 18.399h-25.139c-11.57 0-18.375-6.847-18.375-18.399v-25.205c0-11.583 6.804-18.464 18.375-18.464h27.385zm-7.213 37.401l9.832-12.703-.136.068c.545-.75.647-1.703.272-2.555-.37-.852-1.19-1.431-2.072-1.499a2.614 2.614 0 00-2.385 1.056l-8.229 10.663-9.428-7.427a2.69 2.69 0 00-1.939-.545 2.637 2.637 0 00-1.701 1.019l-10.067 13.119-.208.306c-.578 1.087-.306 2.484.715 3.237.476.306.986.511 1.565.511.785.034 1.53-.378 2.007-1.022l8.539-11.007 9.697 7.293.306.201c1.089.58 2.449.31 3.232-.715z"/></g><g style="mix-blend-mode:hard-light" filter="url(#dfilter1_f_764_95)" stroke="#7942E3" stroke-width="5.804"><path d="M133.896 90.46c0-4.53 3.674-8.21 8.199-8.21s8.199 3.68 8.199 8.21c0 4.53-3.674 8.21-8.199 8.21s-8.199-3.68-8.199-8.21z"/><path clip-rule="evenodd" d="M128.01 88.315a16.062 16.062 0 00-.205 2.555c0 7.665 6.192 13.861 13.813 13.861.851 0 1.667-.098 2.518-.235v27.488c0 11.552-6.804 18.399-18.372 18.399h-25.139c-11.57 0-18.375-6.847-18.375-18.399v-25.205c0-11.583 6.804-18.464 18.375-18.464h27.385zm-7.213 37.401l9.832-12.703-.136.068c.545-.75.647-1.703.272-2.555-.37-.852-1.19-1.431-2.072-1.499a2.614 2.614 0 00-2.385 1.056l-8.229 10.663-9.428-7.427a2.69 2.69 0 00-1.939-.545 2.637 2.637 0 00-1.701 1.019l-10.067 13.119-.208.306c-.578 1.087-.306 2.484.715 3.237.476.306.986.511 1.565.511.785.034 1.53-.378 2.007-1.022l8.539-11.007 9.697 7.293.306.201c1.089.58 2.449.31 3.232-.715z"/></g><g style="mix-blend-mode:hard-light" filter="url(#dfilter2_ddi_764_95)" stroke="#8350E5" stroke-opacity=".2" stroke-width="4.438"><path d="M133.896 90.46c0-4.53 3.674-8.21 8.199-8.21s8.199 3.68 8.199 8.21c0 4.53-3.674 8.21-8.199 8.21s-8.199-3.68-8.199-8.21z"/><path clip-rule="evenodd" d="M128.01 88.315a16.062 16.062 0 00-.205 2.555c0 7.665 6.192 13.861 13.813 13.861.851 0 1.667-.098 2.518-.235v27.488c0 11.552-6.804 18.399-18.372 18.399h-25.139c-11.57 0-18.375-6.847-18.375-18.399v-25.205c0-11.583 6.804-18.464 18.375-18.464h27.385zm-7.213 37.401l9.832-12.703-.136.068c.545-.75.647-1.703.272-2.555-.37-.852-1.19-1.431-2.072-1.499a2.614 2.614 0 00-2.385 1.056l-8.229 10.663-9.428-7.427a2.69 2.69 0 00-1.939-.545 2.637 2.637 0 00-1.701 1.019l-10.067 13.119-.208.306c-.578 1.087-.306 2.484.715 3.237.476.306.986.511 1.565.511.785.034 1.53-.378 2.007-1.022l8.539-11.007 9.697 7.293.306.201c1.089.58 2.449.31 3.232-.715z"/></g><g filter="url(#dfilter3_f_764_95)" stroke="#8350E5" stroke-width="2.731"><path d="M133.896 90.46c0-4.53 3.674-8.21 8.199-8.21s8.199 3.68 8.199 8.21c0 4.53-3.674 8.21-8.199 8.21s-8.199-3.68-8.199-8.21z"/><path clip-rule="evenodd" d="M128.01 88.315a16.062 16.062 0 00-.205 2.555c0 7.665 6.192 13.861 13.813 13.861.851 0 1.667-.098 2.518-.235v27.488c0 11.552-6.804 18.399-18.372 18.399h-25.139c-11.57 0-18.375-6.847-18.375-18.399v-25.205c0-11.583 6.804-18.464 18.375-18.464h27.385zm-7.213 37.401l9.832-12.703-.136.068c.545-.75.647-1.703.272-2.555-.37-.852-1.19-1.431-2.072-1.499a2.614 2.614 0 00-2.385 1.056l-8.229 10.663-9.428-7.427a2.69 2.69 0 00-1.939-.545 2.637 2.637 0 00-1.701 1.019l-10.067 13.119-.208.306c-.578 1.087-.306 2.484.715 3.237.476.306.986.511 1.565.511.785.034 1.53-.378 2.007-1.022l8.539-11.007 9.697 7.293.306.201c1.089.58 2.449.31 3.232-.715z"/></g><g filter="url(#dfilter4_f_764_95)" stroke="#fff" stroke-width="1.366"><path d="M133.896 90.46c0-4.53 3.674-8.21 8.199-8.21s8.199 3.68 8.199 8.21c0 4.53-3.674 8.21-8.199 8.21s-8.199-3.68-8.199-8.21z"/><path clip-rule="evenodd" d="M128.01 88.315a16.062 16.062 0 00-.205 2.555c0 7.665 6.192 13.861 13.813 13.861.851 0 1.667-.098 2.518-.235v27.488c0 11.552-6.804 18.399-18.372 18.399h-25.139c-11.57 0-18.375-6.847-18.375-18.399v-25.205c0-11.583 6.804-18.464 18.375-18.464h27.385zm-7.213 37.401l9.832-12.703-.136.068c.545-.75.647-1.703.272-2.555-.37-.852-1.19-1.431-2.072-1.499a2.614 2.614 0 00-2.385 1.056l-8.229 10.663-9.428-7.427a2.69 2.69 0 00-1.939-.545 2.637 2.637 0 00-1.701 1.019l-10.067 13.119-.208.306c-.578 1.087-.306 2.484.715 3.237.476.306.986.511 1.565.511.785.034 1.53-.378 2.007-1.022l8.539-11.007 9.697 7.293.306.201c1.089.58 2.449.31 3.232-.715z"/></g><g filter="url(#dfilter5_b_764_95)" fill="#5B1ED0" fill-opacity=".01"><path d="M133.876 90.448c0-4.524 3.673-8.198 8.197-8.198 4.523 0 8.196 3.674 8.196 8.198 0 4.525-3.673 8.199-8.196 8.199-4.524 0-8.197-3.674-8.197-8.199z"/><path fill-rule="evenodd" clip-rule="evenodd" d="M127.992 88.306c-.136.85-.204 1.701-.204 2.552 0 7.654 6.19 13.842 13.808 13.842.85 0 1.667-.099 2.517-.235v27.45c0 11.535-6.802 18.373-18.365 18.373h-25.13c-11.566 0-18.368-6.838-18.368-18.373v-25.171c0-11.566 6.802-18.438 18.368-18.438h27.374zm-7.21 37.349l9.829-12.685-.136.068a2.55 2.55 0 00.272-2.552c-.371-.85-1.19-1.428-2.071-1.497a2.613 2.613 0 00-2.384 1.055l-8.227 10.648-9.424-7.416a2.683 2.683 0 00-1.938-.544 2.633 2.633 0 00-1.701 1.017l-10.063 13.1-.208.306c-.578 1.086-.306 2.48.715 3.232.476.306.986.51 1.564.51.786.034 1.53-.377 2.007-1.02l8.536-10.992 9.692 7.284.307.201a2.543 2.543 0 003.23-.715z"/></g><defs><filter id="dfilter0_f_764_95" x=".437" y=".437" width="231.67" height="231.759" filterUnits="userSpaceOnUse" color-interpolation-filters="sRGB"><feFlood flood-opacity="0" result="BackgroundImageFix"/><feBlend in="SourceGraphic" in2="BackgroundImageFix" result="shape"/><feGaussianBlur stdDeviation="39.797" result="effect1_foregroundBlur_764_95"/></filter><filter id="dfilter1_f_764_95" x="52.817" y="52.817" width="126.91" height="127" filterUnits="userSpaceOnUse" color-interpolation-filters="sRGB"><feFlood flood-opacity="0" result="BackgroundImageFix"/><feBlend in="SourceGraphic" in2="BackgroundImageFix" result="shape"/><feGaussianBlur stdDeviation="13.266" result="effect1_foregroundBlur_764_95"/></filter><filter id="dfilter2_ddi_764_95" x="45.54" y="72.072" width="141.464" height="141.553" filterUnits="userSpaceOnUse" color-interpolation-filters="sRGB"><feFlood flood-opacity="0" result="BackgroundImageFix"/><feColorMatrix in="SourceAlpha" values="0 0 0 0 0 0 0 0 0 0 0 0 0 0 0 0 0 0 127 0" result="hardAlpha"/><feOffset dy="17.245"/><feGaussianBlur stdDeviation="6.633"/><feColorMatrix values="0 0 0 0 0.114706 0 0 0 0 0.0382353 0 0 0 0 0.261765 0 0 0 0.7 0"/><feBlend mode="multiply" in2="BackgroundImageFix" result="effect1_dropShadow_764_95"/><feColorMatrix in="SourceAlpha" values="0 0 0 0 0 0 0 0 0 0 0 0 0 0 0 0 0 0 127 0" result="hardAlpha"/><feOffset dy="26.531"/><feGaussianBlur stdDeviation="17.245"/><feColorMatrix values="0 0 0 0 0.229412 0 0 0 0 0.0764706 0 0 0 0 0.523529 0 0 0 1 0"/><feBlend mode="color-dodge" in2="effect1_dropShadow_764_95" result="effect2_dropShadow_764_95"/><feBlend in="SourceGraphic" in2="effect2_dropShadow_764_95" result="shape"/><feColorMatrix in="SourceAlpha" values="0 0 0 0 0 0 0 0 0 0 0 0 0 0 0 0 0 0 127 0" result="hardAlpha"/><feOffset dx="-1.725" dy="3.449"/><feGaussianBlur stdDeviation=".862"/><feComposite in2="hardAlpha" operator="arithmetic" k2="-1" k3="1"/><feColorMatrix values="0 0 0 0 1 0 0 0 0 1 0 0 0 0 1 0 0 0 0.5 0"/><feBlend in2="shape" result="effect3_innerShadow_764_95"/></filter><filter id="dfilter3_f_764_95" x="80.202" y="80.202" width="72.141" height="72.23" filterUnits="userSpaceOnUse" color-interpolation-filters="sRGB"><feFlood flood-opacity="0" result="BackgroundImageFix"/><feBlend in="SourceGraphic" in2="BackgroundImageFix" result="shape"/><feGaussianBlur stdDeviation=".341" result="effect1_foregroundBlur_764_95"/></filter><filter id="dfilter4_f_764_95" x="81.112" y="81.112" width="70.32" height="70.409" filterUnits="userSpaceOnUse" color-interpolation-filters="sRGB"><feFlood flood-opacity="0" result="BackgroundImageFix"/><feBlend in="SourceGraphic" in2="BackgroundImageFix" result="shape"/><feGaussianBlur stdDeviation=".228" result="effect1_foregroundBlur_764_95"/></filter><filter id="dfilter5_b_764_95" x="66.25" y="66.25" width="100.019" height="100.038" filterUnits="userSpaceOnUse" color-interpolation-filters="sRGB"><feFlood flood-opacity="0" result="BackgroundImageFix"/><feGaussianBlur in="BackgroundImage" stdDeviation="8"/><feComposite in2="SourceAlpha" operator="in" result="effect1_backgroundBlur_764_95"/><feBlend in="SourceGraphic" in2="effect1_backgroundBlur_764_95" result="shape"/></filter></defs></svg><svg fill="none" viewBox="0 0 229 233" id="product-2" xmlns="http://www.w3.org/2000/svg"><g style="mix-blend-mode:hard-light" filter="url(#efilter0_f_764_29)"><path clip-rule="evenodd" d="M143.032 121.699c1.217.647 2.156 1.669 2.817 2.691 1.286 2.112 1.182 4.701-.07 6.983l-2.434 4.088c-1.286 2.181-3.685 3.543-6.154 3.543-1.217 0-2.573-.34-3.685-1.022-.904-.579-1.947-.783-3.06-.783-3.442 0-6.328 2.827-6.432 6.2 0 3.917-3.199 6.983-7.197 6.983h-4.729c-4.033 0-7.232-3.066-7.232-6.983-.07-3.373-2.955-6.2-6.397-6.2-1.148 0-2.191.204-3.06.783-1.113.682-2.504 1.022-3.686 1.022-2.503 0-4.902-1.362-6.189-3.543l-2.399-4.088c-1.286-2.214-1.356-4.871-.07-6.983.557-1.022 1.6-2.044 2.782-2.691.974-.477 1.6-1.261 2.19-2.181 1.74-2.929.696-6.779-2.26-8.516-3.441-1.942-4.554-6.268-2.572-9.641l2.33-4.02a7.223 7.223 0 019.804-2.589c3.025 1.636 6.954.545 8.727-2.35.557-.954.87-1.976.8-2.998a6.086 6.086 0 01.973-3.611c1.287-2.112 3.616-3.475 6.155-3.543h4.902c2.573 0 4.902 1.43 6.189 3.543.626 1.022 1.043 2.282.939 3.61-.07 1.023.243 2.045.799 2.999 1.774 2.895 5.703 3.986 8.762 2.35a7.182 7.182 0 019.77 2.59l2.33 4.019c2.016 3.373.904 7.699-2.573 9.641-2.955 1.737-3.999 5.587-2.225 8.516.556.92 1.182 1.704 2.155 2.181zm-38.419-5.349c0 5.349 4.415 9.607 9.874 9.607 5.459 0 9.77-4.258 9.77-9.607 0-5.348-4.311-9.64-9.77-9.64s-9.874 4.292-9.874 9.64z" stroke="#7942E3" stroke-width="5.804"/></g><g style="mix-blend-mode:hard-light" filter="url(#efilter1_f_764_29)"><path clip-rule="evenodd" d="M143.032 121.699c1.217.647 2.156 1.669 2.817 2.691 1.286 2.112 1.182 4.701-.07 6.983l-2.434 4.088c-1.286 2.181-3.685 3.543-6.154 3.543-1.217 0-2.573-.34-3.685-1.022-.904-.579-1.947-.783-3.06-.783-3.442 0-6.328 2.827-6.432 6.2 0 3.917-3.199 6.983-7.197 6.983h-4.729c-4.033 0-7.232-3.066-7.232-6.983-.07-3.373-2.955-6.2-6.397-6.2-1.148 0-2.191.204-3.06.783-1.113.682-2.504 1.022-3.686 1.022-2.503 0-4.902-1.362-6.189-3.543l-2.399-4.088c-1.286-2.214-1.356-4.871-.07-6.983.557-1.022 1.6-2.044 2.782-2.691.974-.477 1.6-1.261 2.19-2.181 1.74-2.929.696-6.779-2.26-8.516-3.441-1.942-4.554-6.268-2.572-9.641l2.33-4.02a7.223 7.223 0 019.804-2.589c3.025 1.636 6.954.545 8.727-2.35.557-.954.87-1.976.8-2.998a6.086 6.086 0 01.973-3.611c1.287-2.112 3.616-3.475 6.155-3.543h4.902c2.573 0 4.902 1.43 6.189 3.543.626 1.022 1.043 2.282.939 3.61-.07 1.023.243 2.045.799 2.999 1.774 2.895 5.703 3.986 8.762 2.35a7.182 7.182 0 019.77 2.59l2.33 4.019c2.016 3.373.904 7.699-2.573 9.641-2.955 1.737-3.999 5.587-2.225 8.516.556.92 1.182 1.704 2.155 2.181zm-38.419-5.349c0 5.349 4.415 9.607 9.874 9.607 5.459 0 9.77-4.258 9.77-9.607 0-5.348-4.311-9.64-9.77-9.64s-9.874 4.292-9.874 9.64z" stroke="#773EE3" stroke-width="4.438"/></g><g style="mix-blend-mode:hard-light" filter="url(#efilter2_ddi_764_29)"><path clip-rule="evenodd" d="M143.032 121.699c1.217.647 2.156 1.669 2.817 2.691 1.286 2.112 1.182 4.701-.07 6.983l-2.434 4.088c-1.286 2.181-3.685 3.543-6.154 3.543-1.217 0-2.573-.34-3.685-1.022-.904-.579-1.947-.783-3.06-.783-3.442 0-6.328 2.827-6.432 6.2 0 3.917-3.199 6.983-7.197 6.983h-4.729c-4.033 0-7.232-3.066-7.232-6.983-.07-3.373-2.955-6.2-6.397-6.2-1.148 0-2.191.204-3.06.783-1.113.682-2.504 1.022-3.686 1.022-2.503 0-4.902-1.362-6.189-3.543l-2.399-4.088c-1.286-2.214-1.356-4.871-.07-6.983.557-1.022 1.6-2.044 2.782-2.691.974-.477 1.6-1.261 2.19-2.181 1.74-2.929.696-6.779-2.26-8.516-3.441-1.942-4.554-6.268-2.572-9.641l2.33-4.02a7.223 7.223 0 019.804-2.589c3.025 1.636 6.954.545 8.727-2.35.557-.954.87-1.976.8-2.998a6.086 6.086 0 01.973-3.611c1.287-2.112 3.616-3.475 6.155-3.543h4.902c2.573 0 4.902 1.43 6.189 3.543.626 1.022 1.043 2.282.939 3.61-.07 1.023.243 2.045.799 2.999 1.774 2.895 5.703 3.986 8.762 2.35a7.182 7.182 0 019.77 2.59l2.33 4.019c2.016 3.373.904 7.699-2.573 9.641-2.955 1.737-3.999 5.587-2.225 8.516.556.92 1.182 1.704 2.155 2.181zm-38.419-5.349c0 5.349 4.415 9.607 9.874 9.607 5.459 0 9.77-4.258 9.77-9.607 0-5.348-4.311-9.64-9.77-9.64s-9.874 4.292-9.874 9.64z" stroke="#8350E5" stroke-opacity=".2" stroke-width="4.438"/></g><g filter="url(#efilter3_f_764_29)"><path clip-rule="evenodd" d="M143.032 121.699c1.217.647 2.156 1.669 2.817 2.691 1.286 2.112 1.182 4.701-.07 6.983l-2.434 4.088c-1.286 2.181-3.685 3.543-6.154 3.543-1.217 0-2.573-.34-3.685-1.022-.904-.579-1.947-.783-3.06-.783-3.442 0-6.328 2.827-6.432 6.2 0 3.917-3.199 6.983-7.197 6.983h-4.729c-4.033 0-7.232-3.066-7.232-6.983-.07-3.373-2.955-6.2-6.397-6.2-1.148 0-2.191.204-3.06.783-1.113.682-2.504 1.022-3.686 1.022-2.503 0-4.902-1.362-6.189-3.543l-2.399-4.088c-1.286-2.214-1.356-4.871-.07-6.983.557-1.022 1.6-2.044 2.782-2.691.974-.477 1.6-1.261 2.19-2.181 1.74-2.929.696-6.779-2.26-8.516-3.441-1.942-4.554-6.268-2.572-9.641l2.33-4.02a7.223 7.223 0 019.804-2.589c3.025 1.636 6.954.545 8.727-2.35.557-.954.87-1.976.8-2.998a6.086 6.086 0 01.973-3.611c1.287-2.112 3.616-3.475 6.155-3.543h4.902c2.573 0 4.902 1.43 6.189 3.543.626 1.022 1.043 2.282.939 3.61-.07 1.023.243 2.045.799 2.999 1.774 2.895 5.703 3.986 8.762 2.35a7.182 7.182 0 019.77 2.59l2.33 4.019c2.016 3.373.904 7.699-2.573 9.641-2.955 1.737-3.999 5.587-2.225 8.516.556.92 1.182 1.704 2.155 2.181zm-38.419-5.349c0 5.349 4.415 9.607 9.874 9.607 5.459 0 9.77-4.258 9.77-9.607 0-5.348-4.311-9.64-9.77-9.64s-9.874 4.292-9.874 9.64z" stroke="#8350E5" stroke-width="2.731"/></g><g filter="url(#efilter4_f_764_29)"><path clip-rule="evenodd" d="M143.032 121.699c1.217.647 2.156 1.669 2.817 2.691 1.286 2.112 1.182 4.701-.07 6.983l-2.434 4.088c-1.286 2.181-3.685 3.543-6.154 3.543-1.217 0-2.573-.34-3.685-1.022-.904-.579-1.947-.783-3.06-.783-3.442 0-6.328 2.827-6.432 6.2 0 3.917-3.199 6.983-7.197 6.983h-4.729c-4.033 0-7.232-3.066-7.232-6.983-.07-3.373-2.955-6.2-6.397-6.2-1.148 0-2.191.204-3.06.783-1.113.682-2.504 1.022-3.686 1.022-2.503 0-4.902-1.362-6.189-3.543l-2.399-4.088c-1.286-2.214-1.356-4.871-.07-6.983.557-1.022 1.6-2.044 2.782-2.691.974-.477 1.6-1.261 2.19-2.181 1.74-2.929.696-6.779-2.26-8.516-3.441-1.942-4.554-6.268-2.572-9.641l2.33-4.02a7.223 7.223 0 019.804-2.589c3.025 1.636 6.954.545 8.727-2.35.557-.954.87-1.976.8-2.998a6.086 6.086 0 01.973-3.611c1.287-2.112 3.616-3.475 6.155-3.543h4.902c2.573 0 4.902 1.43 6.189 3.543.626 1.022 1.043 2.282.939 3.61-.07 1.023.243 2.045.799 2.999 1.774 2.895 5.703 3.986 8.762 2.35a7.182 7.182 0 019.77 2.59l2.33 4.019c2.016 3.373.904 7.699-2.573 9.641-2.955 1.737-3.999 5.587-2.225 8.516.556.92 1.182 1.704 2.155 2.181zm-38.419-5.349c0 5.349 4.415 9.607 9.874 9.607 5.459 0 9.77-4.258 9.77-9.607 0-5.348-4.311-9.64-9.77-9.64s-9.874 4.292-9.874 9.64z" stroke="#fff" stroke-width="1.366"/></g><g filter="url(#efilter5_b_764_29)"><path fill-rule="evenodd" clip-rule="evenodd" d="M143.01 121.643c1.216.647 2.154 1.667 2.815 2.688 1.286 2.109 1.181 4.694-.07 6.974l-2.433 4.082c-1.286 2.177-3.684 3.538-6.151 3.538-1.217 0-2.572-.34-3.685-1.021-.903-.578-1.946-.782-3.058-.782-3.441 0-6.326 2.823-6.43 6.191 0 3.912-3.198 6.974-7.194 6.974h-4.727c-4.032 0-7.23-3.062-7.23-6.974-.069-3.368-2.954-6.191-6.395-6.191-1.147 0-2.19.204-3.058.782-1.112.681-2.503 1.021-3.684 1.021-2.503 0-4.9-1.361-6.187-3.538l-2.398-4.082c-1.286-2.212-1.356-4.865-.07-6.974.556-1.021 1.6-2.041 2.78-2.688.974-.476 1.6-1.258 2.19-2.177 1.738-2.925.696-6.769-2.259-8.504-3.44-1.939-4.553-6.26-2.572-9.628l2.33-4.014a7.224 7.224 0 019.8-2.585c3.024 1.633 6.951.544 8.724-2.347.556-.953.869-1.974.799-2.994a6.072 6.072 0 01.974-3.606c1.286-2.11 3.614-3.47 6.151-3.538h4.901c2.572 0 4.901 1.429 6.187 3.538.625 1.02 1.042 2.28.938 3.606-.07 1.02.243 2.041.799 2.993 1.773 2.892 5.7 3.98 8.759 2.348a7.182 7.182 0 019.766 2.585l2.329 4.014c2.016 3.368.904 7.689-2.572 9.628-2.954 1.735-3.997 5.579-2.224 8.504.556.919 1.181 1.701 2.155 2.177zm-38.406-5.341c0 5.341 4.414 9.594 9.871 9.594 5.456 0 9.766-4.253 9.766-9.594 0-5.34-4.31-9.627-9.766-9.627-5.457 0-9.871 4.287-9.871 9.627z" fill="#5B1ED0" fill-opacity=".01"/></g><defs><filter id="efilter0_f_764_29" x="52.692" y="52.817" width="123.508" height="126.999" filterUnits="userSpaceOnUse" color-interpolation-filters="sRGB"><feFlood flood-opacity="0" result="BackgroundImageFix"/><feBlend in="SourceGraphic" in2="BackgroundImageFix" result="shape"/><feGaussianBlur stdDeviation="13.266" result="effect1_foregroundBlur_764_29"/></filter><filter id="efilter1_f_764_29" x=".312" y=".437" width="228.268" height="231.758" filterUnits="userSpaceOnUse" color-interpolation-filters="sRGB"><feFlood flood-opacity="0" result="BackgroundImageFix"/><feBlend in="SourceGraphic" in2="BackgroundImageFix" result="shape"/><feGaussianBlur stdDeviation="39.797" result="effect1_foregroundBlur_764_29"/></filter><filter id="efilter2_ddi_764_29" x="45.415" y="72.072" width="138.061" height="141.552" filterUnits="userSpaceOnUse" color-interpolation-filters="sRGB"><feFlood flood-opacity="0" result="BackgroundImageFix"/><feColorMatrix in="SourceAlpha" values="0 0 0 0 0 0 0 0 0 0 0 0 0 0 0 0 0 0 127 0" result="hardAlpha"/><feOffset dy="17.245"/><feGaussianBlur stdDeviation="6.633"/><feColorMatrix values="0 0 0 0 0.114706 0 0 0 0 0.0382353 0 0 0 0 0.261765 0 0 0 0.7 0"/><feBlend mode="multiply" in2="BackgroundImageFix" result="effect1_dropShadow_764_29"/><feColorMatrix in="SourceAlpha" values="0 0 0 0 0 0 0 0 0 0 0 0 0 0 0 0 0 0 127 0" result="hardAlpha"/><feOffset dy="26.531"/><feGaussianBlur stdDeviation="17.245"/><feColorMatrix values="0 0 0 0 0.229412 0 0 0 0 0.0764706 0 0 0 0 0.523529 0 0 0 1 0"/><feBlend mode="color-dodge" in2="effect1_dropShadow_764_29" result="effect2_dropShadow_764_29"/><feBlend in="SourceGraphic" in2="effect2_dropShadow_764_29" result="shape"/><feColorMatrix in="SourceAlpha" values="0 0 0 0 0 0 0 0 0 0 0 0 0 0 0 0 0 0 127 0" result="hardAlpha"/><feOffset dx="-1.725" dy="3.449"/><feGaussianBlur stdDeviation=".862"/><feComposite in2="hardAlpha" operator="arithmetic" k2="-1" k3="1"/><feColorMatrix values="0 0 0 0 1 0 0 0 0 1 0 0 0 0 1 0 0 0 0.5 0"/><feBlend in2="shape" result="effect3_innerShadow_764_29"/></filter><filter id="efilter3_f_764_29" x="80.077" y="80.202" width="68.739" height="72.229" filterUnits="userSpaceOnUse" color-interpolation-filters="sRGB"><feFlood flood-opacity="0" result="BackgroundImageFix"/><feBlend in="SourceGraphic" in2="BackgroundImageFix" result="shape"/><feGaussianBlur stdDeviation=".341" result="effect1_foregroundBlur_764_29"/></filter><filter id="efilter4_f_764_29" x="80.987" y="81.112" width="66.918" height="70.408" filterUnits="userSpaceOnUse" color-interpolation-filters="sRGB"><feFlood flood-opacity="0" result="BackgroundImageFix"/><feBlend in="SourceGraphic" in2="BackgroundImageFix" result="shape"/><feGaussianBlur stdDeviation=".228" result="effect1_foregroundBlur_764_29"/></filter><filter id="efilter5_b_764_29" x="66.125" y="66.25" width="96.618" height="100.037" filterUnits="userSpaceOnUse" color-interpolation-filters="sRGB"><feFlood flood-opacity="0" result="BackgroundImageFix"/><feGaussianBlur in="BackgroundImage" stdDeviation="8"/><feComposite in2="SourceAlpha" operator="in" result="effect1_backgroundBlur_764_29"/><feBlend in="SourceGraphic" in2="effect1_backgroundBlur_764_29" result="shape"/></filter></defs></svg><svg fill="none" viewBox="0 0 233 233" id="product-3" xmlns="http://www.w3.org/2000/svg"><g style="mix-blend-mode:hard-light" filter="url(#ffilter0_f_764_43)" stroke="#773EE3" stroke-width="4.438"><path d="M117.382 82.964a2.804 2.804 0 011.998-.711c15.551.466 28.547 11.77 30.903 26.877a.834.834 0 010 .273c.05.715-.191 1.42-.671 1.959-.48.54-1.159.87-1.887.916l-26.127 1.725a3.114 3.114 0 01-2.36-.784 3 3 0 01-.998-2.242l-1.756-25.697v-.424a2.705 2.705 0 01.898-1.892z"/><path d="M115.59 120.723l22.646-1.453.154.061c.972.015 1.899.41 2.575 1.097a3.571 3.571 0 011.03 2.565c-.893 13.02-10.426 23.899-23.4 26.702-12.974 2.803-26.274-3.144-32.644-14.595a28.007 28.007 0 01-3.482-10.685 20.296 20.296 0 01-.215-3.359c.043-13.845 9.887-25.796 23.662-28.724 1.667-.313 3.339.521 4.067 2.028.181.273.326.568.431.878.258 3.99.526 7.944.793 11.881.211 3.109.421 6.207.624 9.306a6.44 6.44 0 00.339 2.149c.553 1.363 1.929 2.227 3.42 2.149z"/></g><g style="mix-blend-mode:hard-light" filter="url(#ffilter1_f_764_43)" stroke="#7942E3" stroke-width="5.804"><path d="M117.382 82.964a2.804 2.804 0 011.998-.711c15.551.466 28.547 11.77 30.903 26.877a.834.834 0 010 .273c.05.715-.191 1.42-.671 1.959-.48.54-1.159.87-1.887.916l-26.127 1.725a3.114 3.114 0 01-2.36-.784 3 3 0 01-.998-2.242l-1.756-25.697v-.424a2.705 2.705 0 01.898-1.892z"/><path d="M115.59 120.723l22.646-1.453.154.061c.972.015 1.899.41 2.575 1.097a3.571 3.571 0 011.03 2.565c-.893 13.02-10.426 23.899-23.4 26.702-12.974 2.803-26.274-3.144-32.644-14.595a28.007 28.007 0 01-3.482-10.685 20.296 20.296 0 01-.215-3.359c.043-13.845 9.887-25.796 23.662-28.724 1.667-.313 3.339.521 4.067 2.028.181.273.326.568.431.878.258 3.99.526 7.944.793 11.881.211 3.109.421 6.207.624 9.306a6.44 6.44 0 00.339 2.149c.553 1.363 1.929 2.227 3.42 2.149z"/></g><g style="mix-blend-mode:hard-light" filter="url(#ffilter2_ddi_764_43)" stroke="#8350E5" stroke-opacity=".2" stroke-width="4.438"><path d="M117.382 82.964a2.804 2.804 0 011.998-.711c15.551.466 28.547 11.77 30.903 26.877a.834.834 0 010 .273c.05.715-.191 1.42-.671 1.959-.48.54-1.159.87-1.887.916l-26.127 1.725a3.114 3.114 0 01-2.36-.784 3 3 0 01-.998-2.242l-1.756-25.697v-.424a2.705 2.705 0 01.898-1.892z"/><path d="M115.59 120.723l22.646-1.453.154.061c.972.015 1.899.41 2.575 1.097a3.571 3.571 0 011.03 2.565c-.893 13.02-10.426 23.899-23.4 26.702-12.974 2.803-26.274-3.144-32.644-14.595a28.007 28.007 0 01-3.482-10.685 20.296 20.296 0 01-.215-3.359c.043-13.845 9.887-25.796 23.662-28.724 1.667-.313 3.339.521 4.067 2.028.181.273.326.568.431.878.258 3.99.526 7.944.793 11.881.211 3.109.421 6.207.624 9.306a6.44 6.44 0 00.339 2.149c.553 1.363 1.929 2.227 3.42 2.149z"/></g><g filter="url(#ffilter3_f_764_43)" stroke="#8350E5" stroke-width="2.731"><path d="M117.382 82.964a2.804 2.804 0 011.998-.711c15.551.466 28.547 11.77 30.903 26.877a.834.834 0 010 .273c.05.715-.191 1.42-.671 1.959-.48.54-1.159.87-1.887.916l-26.127 1.725a3.114 3.114 0 01-2.36-.784 3 3 0 01-.998-2.242l-1.756-25.697v-.424a2.705 2.705 0 01.898-1.892z"/><path d="M115.59 120.723l22.646-1.453.154.061c.972.015 1.899.41 2.575 1.097a3.571 3.571 0 011.03 2.565c-.893 13.02-10.426 23.899-23.4 26.702-12.974 2.803-26.274-3.144-32.644-14.595a28.007 28.007 0 01-3.482-10.685 20.296 20.296 0 01-.215-3.359c.043-13.845 9.887-25.796 23.662-28.724 1.667-.313 3.339.521 4.067 2.028.181.273.326.568.431.878.258 3.99.526 7.944.793 11.881.211 3.109.421 6.207.624 9.306a6.44 6.44 0 00.339 2.149c.553 1.363 1.929 2.227 3.42 2.149z"/></g><g filter="url(#ffilter4_f_764_43)" stroke="#fff" stroke-width="1.366"><path d="M117.382 82.964a2.804 2.804 0 011.998-.711c15.551.466 28.547 11.77 30.903 26.877a.834.834 0 010 .273c.05.715-.191 1.42-.671 1.959-.48.54-1.159.87-1.887.916l-26.127 1.725a3.114 3.114 0 01-2.36-.784 3 3 0 01-.998-2.242l-1.756-25.697v-.424a2.705 2.705 0 01.898-1.892z"/><path d="M115.59 120.723l22.646-1.453.154.061c.972.015 1.899.41 2.575 1.097a3.571 3.571 0 011.03 2.565c-.893 13.02-10.426 23.899-23.4 26.702-12.974 2.803-26.274-3.144-32.644-14.595a28.007 28.007 0 01-3.482-10.685 20.296 20.296 0 01-.215-3.359c.043-13.845 9.887-25.796 23.662-28.724 1.667-.313 3.339.521 4.067 2.028.181.273.326.568.431.878.258 3.99.526 7.944.793 11.881.211 3.109.421 6.207.624 9.306a6.44 6.44 0 00.339 2.149c.553 1.363 1.929 2.227 3.42 2.149z"/></g><g filter="url(#ffilter5_b_764_43)" fill="#5B1ED0" fill-opacity=".01"><path d="M117.369 82.963a2.804 2.804 0 011.997-.71c15.545.465 28.537 11.753 30.891 26.84a.828.828 0 010 .272 2.656 2.656 0 01-.67 1.957 2.761 2.761 0 01-1.886.914l-26.117 1.723a3.117 3.117 0 01-2.36-.783 2.995 2.995 0 01-.997-2.24l-1.756-25.66v-.424a2.7 2.7 0 01.898-1.889z"/><path d="M115.578 120.669l22.637-1.451.154.061c.972.015 1.898.41 2.574 1.096a3.56 3.56 0 011.029 2.561c-.892 13.002-10.422 23.866-23.391 26.664-12.969 2.799-26.264-3.139-32.632-14.574a27.953 27.953 0 01-3.48-10.67 20.252 20.252 0 01-.215-3.355c.042-13.825 9.883-25.76 23.653-28.683 1.667-.312 3.338.52 4.065 2.025.182.273.326.567.432.876.258 3.986.526 7.934.792 11.865.211 3.105.421 6.199.624 9.293-.01.729.104 1.454.339 2.146.553 1.361 1.928 2.224 3.419 2.146z"/></g><defs><filter id="ffilter0_f_764_43" x=".437" y=".437" width="231.67" height="231.758" filterUnits="userSpaceOnUse" color-interpolation-filters="sRGB"><feFlood flood-opacity="0" result="BackgroundImageFix"/><feBlend in="SourceGraphic" in2="BackgroundImageFix" result="shape"/><feGaussianBlur stdDeviation="39.797" result="effect1_foregroundBlur_764_43"/></filter><filter id="ffilter1_f_764_43" x="52.817" y="52.817" width="126.91" height="126.998" filterUnits="userSpaceOnUse" color-interpolation-filters="sRGB"><feFlood flood-opacity="0" result="BackgroundImageFix"/><feBlend in="SourceGraphic" in2="BackgroundImageFix" result="shape"/><feGaussianBlur stdDeviation="13.266" result="effect1_foregroundBlur_764_43"/></filter><filter id="ffilter2_ddi_764_43" x="45.54" y="72.072" width="141.463" height="141.552" filterUnits="userSpaceOnUse" color-interpolation-filters="sRGB"><feFlood flood-opacity="0" result="BackgroundImageFix"/><feColorMatrix in="SourceAlpha" values="0 0 0 0 0 0 0 0 0 0 0 0 0 0 0 0 0 0 127 0" result="hardAlpha"/><feOffset dy="17.245"/><feGaussianBlur stdDeviation="6.633"/><feColorMatrix values="0 0 0 0 0.114706 0 0 0 0 0.0382353 0 0 0 0 0.261765 0 0 0 0.7 0"/><feBlend mode="multiply" in2="BackgroundImageFix" result="effect1_dropShadow_764_43"/><feColorMatrix in="SourceAlpha" values="0 0 0 0 0 0 0 0 0 0 0 0 0 0 0 0 0 0 127 0" result="hardAlpha"/><feOffset dy="26.531"/><feGaussianBlur stdDeviation="17.245"/><feColorMatrix values="0 0 0 0 0.229412 0 0 0 0 0.0764706 0 0 0 0 0.523529 0 0 0 1 0"/><feBlend mode="color-dodge" in2="effect1_dropShadow_764_43" result="effect2_dropShadow_764_43"/><feBlend in="SourceGraphic" in2="effect2_dropShadow_764_43" result="shape"/><feColorMatrix in="SourceAlpha" values="0 0 0 0 0 0 0 0 0 0 0 0 0 0 0 0 0 0 127 0" result="hardAlpha"/><feOffset dx="-1.725" dy="3.449"/><feGaussianBlur stdDeviation=".862"/><feComposite in2="hardAlpha" operator="arithmetic" k2="-1" k3="1"/><feColorMatrix values="0 0 0 0 1 0 0 0 0 1 0 0 0 0 1 0 0 0 0.5 0"/><feBlend in2="shape" result="effect3_innerShadow_764_43"/></filter><filter id="ffilter3_f_764_43" x="80.202" y="80.202" width="72.14" height="72.229" filterUnits="userSpaceOnUse" color-interpolation-filters="sRGB"><feFlood flood-opacity="0" result="BackgroundImageFix"/><feBlend in="SourceGraphic" in2="BackgroundImageFix" result="shape"/><feGaussianBlur stdDeviation=".341" result="effect1_foregroundBlur_764_43"/></filter><filter id="ffilter4_f_764_43" x="81.112" y="81.112" width="70.32" height="70.408" filterUnits="userSpaceOnUse" color-interpolation-filters="sRGB"><feFlood flood-opacity="0" result="BackgroundImageFix"/><feBlend in="SourceGraphic" in2="BackgroundImageFix" result="shape"/><feGaussianBlur stdDeviation=".228" result="effect1_foregroundBlur_764_43"/></filter><filter id="ffilter5_b_764_43" x="66.25" y="66.25" width="100.018" height="100.037" filterUnits="userSpaceOnUse" color-interpolation-filters="sRGB"><feFlood flood-opacity="0" result="BackgroundImageFix"/><feGaussianBlur in="BackgroundImage" stdDeviation="8"/><feComposite in2="SourceAlpha" operator="in" result="effect1_backgroundBlur_764_43"/><feBlend in="SourceGraphic" in2="effect1_backgroundBlur_764_43" result="shape"/></filter></defs></svg><svg fill="none" viewBox="0 0 18 18" id="support" xmlns="http://www.w3.org/2000/svg"><path d="M3.183 7c0-.508.013-.901.124-1.422C3.99 2.5 6.957.51 10.142 1.066c2.39.417 3.942 1.833 4.694 4.077.217.653.223 1.089.235 1.797.013.58.975.568.975.006 0-.509-.012-.847-.1-1.368-.434-2.57-2.55-4.779-5.164-5.377A7.418 7.418 0 009.695.013c-.509-.036-.962.012-1.272.036a6.22 6.22 0 00-1.956.484C4.245 1.49 2.86 3.128 2.34 5.445c-.124.563-.143.944-.143 1.53.006.6.987.588.987.025zM4.145 8.18c-.037-.303-.21-.454-.521-.46H3.3l-1.328.006C.793 7.708.098 8.676.048 9.462c-.068 1.113-.056 1.276-.012 2.39.037.992.75 1.687 1.775 1.772.59.048 1.186.018 1.782.018.403 0 .571-.163.571-.556v-4.61c-.006-.097-.006-.2-.019-.297zm-.962 2.032c0 .768-.006 1.543 0 2.31 0 .128-.03.17-.167.17-.348-.012-.702 0-1.056-.006-.559-.006-.962-.405-.962-.95V9.74c0-.665.416-1.07 1.093-1.07.298 0 .602.012.9-.007.167-.006.198.049.198.2-.006.768-.006.587-.006 1.35zM17.61 8.664c-.329-.515-.763-.89-1.415-.932a65.592 65.592 0 00-1.583-.012c-.236.006-.379.109-.46.32-.043.11-.043.218-.043.333v4.743c0 .35.174.526.54.532h.435c-.031.055-.037.079-.056.097-.726.89-1.676 1.367-2.843 1.452-.15.012-.218-.03-.261-.182a2.372 2.372 0 00-2.552-1.675c-.98.115-1.682.635-2.017 1.548-.335.92-.112 1.749.59 2.432 1.322 1.277 3.55.666 4.004-1.083.03-.12.093-.108.174-.108a4.908 4.908 0 002.551-.799c.633-.411 1.117-.956 1.515-1.585a.333.333 0 01.267-.17c.956-.108 1.533-.737 1.54-1.681.006-.938.006-.932 0-1.87.006-.49-.119-.949-.386-1.36zm-7.952 8.372c-.788.006-1.459-.63-1.459-1.398 0-.762.64-1.379 1.428-1.379.8 0 1.415.623 1.422 1.428-.007.738-.621 1.337-1.391 1.349zm6.512-4.35c-.316.019-.64 0-.956.007-.149.005-.124-.085-.124-.17v-2.31c0-.769.006-.594-.006-1.368 0-.145.043-.181.186-.175.236.012.472.012.708 0 .316-.012.552.127.726.369.205.278.31.593.31.943v1.833c.007.575-.248.841-.844.871z" fill="#fff"/></svg><svg viewBox="0 0 18 17" fill="none" id="telegram" xmlns="http://www.w3.org/2000/svg"><path d="M16.35.036c-.15.075-.375.075-.525.15L1.65 5.136c-.45.15-.825.3-.9.825 0 .525.45.675.825.9C3.3 7.61 5.1 8.436 6.9 9.186c.525.225.825.525 1.05 1.05.75 1.8 1.575 3.6 2.4 5.4.15.375.375.825.9.825s.675-.45.825-.9l2.475-6.975c.9-2.475 1.725-4.95 2.55-7.425.225-.6-.075-1.125-.75-1.125zm-8.625 7.95c-1.35-.6-2.625-1.2-4.2-1.875 3.375-1.2 6.6-2.325 9.75-3.45 0 .075.075.075.075.15L8.325 7.836c-.225.225-.375.3-.6.15zM11.1 13.76c-.675-1.5-1.2-2.85-1.8-4.125-.15-.225-.15-.45.075-.675C11.1 7.31 12.75 5.586 14.55 4.01c-1.125 3.15-2.25 6.375-3.45 9.75z" fill="#fff"/></svg><svg fill="none" viewBox="0 0 56 56" id="twitter" xmlns="http://www.w3.org/2000/svg"><path d="M45.057 16.8c-1.254.555-2.602.93-4.019 1.1a7.005 7.005 0 003.077-3.866 13.99 13.99 0 01-4.444 1.694 7.006 7.006 0 00-8.415-1.383 6.993 6.993 0 00-3.076 3.283 6.974 6.974 0 00-.435 4.473 19.908 19.908 0 01-7.991-2.119 19.87 19.87 0 01-6.436-5.18 6.971 6.971 0 00-.947 3.511 6.978 6.978 0 003.114 5.815 6.992 6.992 0 01-3.17-.874v.09c0 1.613.558 3.176 1.582 4.425a7.004 7.004 0 004.032 2.425 7.063 7.063 0 01-3.161.12 6.989 6.989 0 002.49 3.47 7.012 7.012 0 004.049 1.379 14.063 14.063 0 01-8.694 2.991c-.558 0-1.116-.032-1.67-.097a19.823 19.823 0 0010.727 3.138c12.876 0 19.915-10.643 19.915-19.874 0-.3-.007-.603-.02-.902a14.21 14.21 0 003.49-3.614l.002-.005z" fill="url(#ipaint0_linear_109_415)"/><g filter="url(#ifilter0_bii_109_415)"><circle cx="28" cy="28" r="28" fill="#2D303D" fill-opacity=".2"/></g><path d="M42.483 19.899c-.97.426-2.013.713-3.11.843a5.384 5.384 0 002.381-2.966 10.877 10.877 0 01-3.438 1.3 5.432 5.432 0 00-3.073-1.625 5.463 5.463 0 00-3.437.563 5.384 5.384 0 00-2.379 2.52 5.314 5.314 0 00-.337 3.433 15.498 15.498 0 01-6.182-1.626 15.348 15.348 0 01-4.979-3.976 5.318 5.318 0 00-.093 5.225 5.382 5.382 0 001.77 1.933 5.442 5.442 0 01-2.453-.671v.069a5.33 5.33 0 001.224 3.396 5.426 5.426 0 003.12 1.86 5.507 5.507 0 01-2.446.093 5.366 5.366 0 001.926 2.664 5.453 5.453 0 003.132 1.057 10.934 10.934 0 01-6.725 2.296c-.431 0-.863-.025-1.292-.075a15.425 15.425 0 008.299 2.409c9.96 0 15.406-8.168 15.406-15.252 0-.23-.006-.463-.017-.693a10.947 10.947 0 002.7-2.773l.003-.004z" fill="url(#ipaint1_linear_109_415)"/><defs><linearGradient id="ipaint0_linear_109_415" x1="12.607" y1="15.614" x2="31.913" y2="36.849" gradientUnits="userSpaceOnUse"><stop stop-color="#009EFF"/><stop offset="1" stop-color="#00FAFA"/></linearGradient><linearGradient id="ipaint1_linear_109_415" x1="17.379" y1="18.989" x2="32.184" y2="35.402" gradientUnits="userSpaceOnUse"><stop stop-color="#009EFF"/><stop offset="1" stop-color="#00FAFA"/></linearGradient><filter id="ifilter0_bii_109_415" x="-30" y="-30" width="116" height="116" filterUnits="userSpaceOnUse" color-interpolation-filters="sRGB"><feFlood flood-opacity="0" result="BackgroundImageFix"/><feGaussianBlur in="BackgroundImage" stdDeviation="15"/><feComposite in2="SourceAlpha" operator="in" result="effect1_backgroundBlur_109_415"/><feBlend in="SourceGraphic" in2="effect1_backgroundBlur_109_415" result="shape"/><feColorMatrix in="SourceAlpha" values="0 0 0 0 0 0 0 0 0 0 0 0 0 0 0 0 0 0 127 0" result="hardAlpha"/><feOffset dy="2"/><feGaussianBlur stdDeviation="2"/><feComposite in2="hardAlpha" operator="arithmetic" k2="-1" k3="1"/><feColorMatrix values="0 0 0 0 1 0 0 0 0 1 0 0 0 0 1 0 0 0 0.1 0"/><feBlend in2="shape" result="effect2_innerShadow_109_415"/><feColorMatrix in="SourceAlpha" values="0 0 0 0 0 0 0 0 0 0 0 0 0 0 0 0 0 0 127 0" result="hardAlpha"/><feOffset dy="-5"/><feGaussianBlur stdDeviation="6"/><feComposite in2="hardAlpha" operator="arithmetic" k2="-1" k3="1"/><feColorMatrix values="0 0 0 0 0.113725 0 0 0 0 0.631373 0 0 0 0 0.94902 0 0 0 0.35 0"/><feBlend in2="effect2_innerShadow_109_415" result="effect3_innerShadow_109_415"/></filter></defs></svg><svg fill="none" viewBox="0 0 56 56" id="youtube" xmlns="http://www.w3.org/2000/svg"><g filter="url(#jfilter0_bii_0_1)"><circle cx="28" cy="28" r="28" fill="#2D303D" fill-opacity=".2"/></g><path d="M28 17.38c-12.969 0-13.195 1.153-13.195 10.16S15.03 37.7 28 37.7c12.968 0 13.195-1.153 13.195-10.16S40.968 17.38 28 17.38zm4.23 10.6l-5.926 2.766c-.518.24-.943-.029-.943-.601v-5.21c0-.571.425-.842.943-.602L32.23 27.1c.519.243.519.639 0 .882z" fill="url(#jpaint0_linear_0_1)"/><defs><linearGradient id="jpaint0_linear_0_1" x1="39.264" y1="16.092" x2="18.023" y2="37.012" gradientUnits="userSpaceOnUse"><stop stop-color="#EB0505"/><stop offset="1" stop-color="#CF1178"/></linearGradient><filter id="jfilter0_bii_0_1" x="-30" y="-30" width="116" height="116" filterUnits="userSpaceOnUse" color-interpolation-filters="sRGB"><feFlood flood-opacity="0" result="BackgroundImageFix"/><feGaussianBlur in="BackgroundImage" stdDeviation="15"/><feComposite in2="SourceAlpha" operator="in" result="effect1_backgroundBlur_0_1"/><feBlend in="SourceGraphic" in2="effect1_backgroundBlur_0_1" result="shape"/><feColorMatrix in="SourceAlpha" values="0 0 0 0 0 0 0 0 0 0 0 0 0 0 0 0 0 0 127 0" result="hardAlpha"/><feOffset dy="2"/><feGaussianBlur stdDeviation="2"/><feComposite in2="hardAlpha" operator="arithmetic" k2="-1" k3="1"/><feColorMatrix values="0 0 0 0 1 0 0 0 0 1 0 0 0 0 1 0 0 0 0.1 0"/><feBlend in2="shape" result="effect2_innerShadow_0_1"/><feColorMatrix in="SourceAlpha" values="0 0 0 0 0 0 0 0 0 0 0 0 0 0 0 0 0 0 127 0" result="hardAlpha"/><feOffset dy="-5"/><feGaussianBlur stdDeviation="6"/><feComposite in2="hardAlpha" operator="arithmetic" k2="-1" k3="1"/><feColorMatrix values="0 0 0 0 0.729481 0 0 0 0 0.0562308 0 0 0 0 0.0562308 0 0 0 0.35 0"/><feBlend in2="effect2_innerShadow_0_1" result="effect3_innerShadow_0_1"/></filter></defs></svg></svg>