<svg width="56" height="56" fill="none" xmlns="http://www.w3.org/2000/svg"><g filter="url(#filter0_bii_109_430)"><circle cx="28" cy="28" r="28" fill="#2D303D" fill-opacity=".2"/></g><path fill-rule="evenodd" clip-rule="evenodd" d="M37.446 19.16a5.432 5.432 0 011.224 1.877 7.75 7.75 0 01.495 2.611c.066 1.128.066 1.493.066 4.37s-.015 3.236-.066 4.37a7.754 7.754 0 01-.493 2.574 5.434 5.434 0 01-3.101 3.1 7.79 7.79 0 01-2.575.494c-1.124.065-1.493.065-4.369.065-2.876 0-3.235-.016-4.37-.065a7.753 7.753 0 01-2.573-.53 5.43 5.43 0 01-3.102-3.1 7.767 7.767 0 01-.493-2.575c-.066-1.127-.066-1.494-.066-4.37 0-2.877.015-3.236.066-4.37.017-.879.184-1.75.493-2.574a5.418 5.418 0 013.101-3.1 7.718 7.718 0 012.573-.494c1.124-.064 1.493-.064 4.369-.064 2.876 0 3.235.014 4.37.064.88.018 1.75.185 2.574.495a5.423 5.423 0 011.877 1.222zm-.577 15.091a5.938 5.938 0 00.366-1.987h.013c.05-1.125.05-1.434.05-4.302 0-2.87-.012-3.185-.063-4.305a5.984 5.984 0 00-.366-1.966 3.523 3.523 0 00-2.016-2.016 5.842 5.842 0 00-1.967-.367c-1.14-.064-1.434-.064-4.304-.064s-3.184.014-4.304.064a5.902 5.902 0 00-1.966.367 3.517 3.517 0 00-2.024 2.016 5.935 5.935 0 00-.367 1.987c-.062 1.141-.062 1.434-.062 4.304s.012 3.185.062 4.304c.011.67.135 1.335.367 1.965a3.515 3.515 0 002.024 2.016 5.84 5.84 0 001.966.366c1.14.065 1.433.065 4.304.065 2.87 0 3.185-.013 4.304-.065a5.872 5.872 0 001.967-.367 3.519 3.519 0 002.016-2.015zM34.28 23.598a1.27 1.27 0 100-2.54 1.27 1.27 0 000 2.54zm-5.661-1.07a5.445 5.445 0 100 10.891 5.445 5.445 0 000-10.89zm0 8.983a3.538 3.538 0 110-7.075 3.538 3.538 0 010 7.075z" fill="url(#paint0_linear_109_430)"/><defs><linearGradient id="paint0_linear_109_430" x1="35.769" y1="18.365" x2="19.749" y2="36.851" gradientUnits="userSpaceOnUse"><stop offset=".173" stop-color="#4967D5"/><stop offset=".689" stop-color="#DB2E7D"/><stop offset="1" stop-color="#FFAF00"/></linearGradient><filter id="filter0_bii_109_430" x="-30" y="-30" width="116" height="116" filterUnits="userSpaceOnUse" color-interpolation-filters="sRGB"><feFlood flood-opacity="0" result="BackgroundImageFix"/><feGaussianBlur in="BackgroundImage" stdDeviation="15"/><feComposite in2="SourceAlpha" operator="in" result="effect1_backgroundBlur_109_430"/><feBlend in="SourceGraphic" in2="effect1_backgroundBlur_109_430" result="shape"/><feColorMatrix in="SourceAlpha" values="0 0 0 0 0 0 0 0 0 0 0 0 0 0 0 0 0 0 127 0" result="hardAlpha"/><feOffset dy="2"/><feGaussianBlur stdDeviation="2"/><feComposite in2="hardAlpha" operator="arithmetic" k2="-1" k3="1"/><feColorMatrix values="0 0 0 0 1 0 0 0 0 1 0 0 0 0 1 0 0 0 0.1 0"/><feBlend in2="shape" result="effect2_innerShadow_109_430"/><feColorMatrix in="SourceAlpha" values="0 0 0 0 0 0 0 0 0 0 0 0 0 0 0 0 0 0 127 0" result="hardAlpha"/><feOffset dy="-5"/><feGaussianBlur stdDeviation="6"/><feComposite in2="hardAlpha" operator="arithmetic" k2="-1" k3="1"/><feColorMatrix values="0 0 0 0 0.564706 0 0 0 0 0.054902 0 0 0 0 0.690196 0 0 0 0.35 0"/><feBlend in2="effect2_innerShadow_109_430" result="effect3_innerShadow_109_430"/></filter></defs></svg>