<svg width="229" height="233" fill="none" xmlns="http://www.w3.org/2000/svg"><g style="mix-blend-mode:hard-light" filter="url(#filter0_f_764_29)"><path clip-rule="evenodd" d="M143.032 121.699c1.217.647 2.156 1.669 2.817 2.691 1.286 2.112 1.182 4.701-.07 6.983l-2.434 4.088c-1.286 2.181-3.685 3.543-6.154 3.543-1.217 0-2.573-.34-3.685-1.022-.904-.579-1.947-.783-3.06-.783-3.442 0-6.328 2.827-6.432 6.2 0 3.917-3.199 6.983-7.197 6.983h-4.729c-4.033 0-7.232-3.066-7.232-6.983-.07-3.373-2.955-6.2-6.397-6.2-1.148 0-2.191.204-3.06.783-1.113.682-2.504 1.022-3.686 1.022-2.503 0-4.902-1.362-6.189-3.543l-2.399-4.088c-1.286-2.214-1.356-4.871-.07-6.983.557-1.022 1.6-2.044 2.782-2.691.974-.477 1.6-1.261 2.19-2.181 1.74-2.929.696-6.779-2.26-8.516-3.441-1.942-4.554-6.268-2.572-9.641l2.33-4.02a7.223 7.223 0 019.804-2.589c3.025 1.636 6.954.545 8.727-2.35.557-.954.87-1.976.8-2.998a6.086 6.086 0 01.973-3.611c1.287-2.112 3.616-3.475 6.155-3.543h4.902c2.573 0 4.902 1.43 6.189 3.543.626 1.022 1.043 2.282.939 3.61-.07 1.023.243 2.045.799 2.999 1.774 2.895 5.703 3.986 8.762 2.35a7.182 7.182 0 019.77 2.59l2.33 4.019c2.016 3.373.904 7.699-2.573 9.641-2.955 1.737-3.999 5.587-2.225 8.516.556.92 1.182 1.704 2.155 2.181zm-38.419-5.349c0 5.349 4.415 9.607 9.874 9.607 5.459 0 9.77-4.258 9.77-9.607 0-5.348-4.311-9.64-9.77-9.64s-9.874 4.292-9.874 9.64z" stroke="#7942E3" stroke-width="5.804"/></g><g style="mix-blend-mode:hard-light" filter="url(#filter1_f_764_29)"><path clip-rule="evenodd" d="M143.032 121.699c1.217.647 2.156 1.669 2.817 2.691 1.286 2.112 1.182 4.701-.07 6.983l-2.434 4.088c-1.286 2.181-3.685 3.543-6.154 3.543-1.217 0-2.573-.34-3.685-1.022-.904-.579-1.947-.783-3.06-.783-3.442 0-6.328 2.827-6.432 6.2 0 3.917-3.199 6.983-7.197 6.983h-4.729c-4.033 0-7.232-3.066-7.232-6.983-.07-3.373-2.955-6.2-6.397-6.2-1.148 0-2.191.204-3.06.783-1.113.682-2.504 1.022-3.686 1.022-2.503 0-4.902-1.362-6.189-3.543l-2.399-4.088c-1.286-2.214-1.356-4.871-.07-6.983.557-1.022 1.6-2.044 2.782-2.691.974-.477 1.6-1.261 2.19-2.181 1.74-2.929.696-6.779-2.26-8.516-3.441-1.942-4.554-6.268-2.572-9.641l2.33-4.02a7.223 7.223 0 019.804-2.589c3.025 1.636 6.954.545 8.727-2.35.557-.954.87-1.976.8-2.998a6.086 6.086 0 01.973-3.611c1.287-2.112 3.616-3.475 6.155-3.543h4.902c2.573 0 4.902 1.43 6.189 3.543.626 1.022 1.043 2.282.939 3.61-.07 1.023.243 2.045.799 2.999 1.774 2.895 5.703 3.986 8.762 2.35a7.182 7.182 0 019.77 2.59l2.33 4.019c2.016 3.373.904 7.699-2.573 9.641-2.955 1.737-3.999 5.587-2.225 8.516.556.92 1.182 1.704 2.155 2.181zm-38.419-5.349c0 5.349 4.415 9.607 9.874 9.607 5.459 0 9.77-4.258 9.77-9.607 0-5.348-4.311-9.64-9.77-9.64s-9.874 4.292-9.874 9.64z" stroke="#773EE3" stroke-width="4.438"/></g><g style="mix-blend-mode:hard-light" filter="url(#filter2_ddi_764_29)"><path clip-rule="evenodd" d="M143.032 121.699c1.217.647 2.156 1.669 2.817 2.691 1.286 2.112 1.182 4.701-.07 6.983l-2.434 4.088c-1.286 2.181-3.685 3.543-6.154 3.543-1.217 0-2.573-.34-3.685-1.022-.904-.579-1.947-.783-3.06-.783-3.442 0-6.328 2.827-6.432 6.2 0 3.917-3.199 6.983-7.197 6.983h-4.729c-4.033 0-7.232-3.066-7.232-6.983-.07-3.373-2.955-6.2-6.397-6.2-1.148 0-2.191.204-3.06.783-1.113.682-2.504 1.022-3.686 1.022-2.503 0-4.902-1.362-6.189-3.543l-2.399-4.088c-1.286-2.214-1.356-4.871-.07-6.983.557-1.022 1.6-2.044 2.782-2.691.974-.477 1.6-1.261 2.19-2.181 1.74-2.929.696-6.779-2.26-8.516-3.441-1.942-4.554-6.268-2.572-9.641l2.33-4.02a7.223 7.223 0 019.804-2.589c3.025 1.636 6.954.545 8.727-2.35.557-.954.87-1.976.8-2.998a6.086 6.086 0 01.973-3.611c1.287-2.112 3.616-3.475 6.155-3.543h4.902c2.573 0 4.902 1.43 6.189 3.543.626 1.022 1.043 2.282.939 3.61-.07 1.023.243 2.045.799 2.999 1.774 2.895 5.703 3.986 8.762 2.35a7.182 7.182 0 019.77 2.59l2.33 4.019c2.016 3.373.904 7.699-2.573 9.641-2.955 1.737-3.999 5.587-2.225 8.516.556.92 1.182 1.704 2.155 2.181zm-38.419-5.349c0 5.349 4.415 9.607 9.874 9.607 5.459 0 9.77-4.258 9.77-9.607 0-5.348-4.311-9.64-9.77-9.64s-9.874 4.292-9.874 9.64z" stroke="#8350E5" stroke-opacity=".2" stroke-width="4.438"/></g><g filter="url(#filter3_f_764_29)"><path clip-rule="evenodd" d="M143.032 121.699c1.217.647 2.156 1.669 2.817 2.691 1.286 2.112 1.182 4.701-.07 6.983l-2.434 4.088c-1.286 2.181-3.685 3.543-6.154 3.543-1.217 0-2.573-.34-3.685-1.022-.904-.579-1.947-.783-3.06-.783-3.442 0-6.328 2.827-6.432 6.2 0 3.917-3.199 6.983-7.197 6.983h-4.729c-4.033 0-7.232-3.066-7.232-6.983-.07-3.373-2.955-6.2-6.397-6.2-1.148 0-2.191.204-3.06.783-1.113.682-2.504 1.022-3.686 1.022-2.503 0-4.902-1.362-6.189-3.543l-2.399-4.088c-1.286-2.214-1.356-4.871-.07-6.983.557-1.022 1.6-2.044 2.782-2.691.974-.477 1.6-1.261 2.19-2.181 1.74-2.929.696-6.779-2.26-8.516-3.441-1.942-4.554-6.268-2.572-9.641l2.33-4.02a7.223 7.223 0 019.804-2.589c3.025 1.636 6.954.545 8.727-2.35.557-.954.87-1.976.8-2.998a6.086 6.086 0 01.973-3.611c1.287-2.112 3.616-3.475 6.155-3.543h4.902c2.573 0 4.902 1.43 6.189 3.543.626 1.022 1.043 2.282.939 3.61-.07 1.023.243 2.045.799 2.999 1.774 2.895 5.703 3.986 8.762 2.35a7.182 7.182 0 019.77 2.59l2.33 4.019c2.016 3.373.904 7.699-2.573 9.641-2.955 1.737-3.999 5.587-2.225 8.516.556.92 1.182 1.704 2.155 2.181zm-38.419-5.349c0 5.349 4.415 9.607 9.874 9.607 5.459 0 9.77-4.258 9.77-9.607 0-5.348-4.311-9.64-9.77-9.64s-9.874 4.292-9.874 9.64z" stroke="#8350E5" stroke-width="2.731"/></g><g filter="url(#filter4_f_764_29)"><path clip-rule="evenodd" d="M143.032 121.699c1.217.647 2.156 1.669 2.817 2.691 1.286 2.112 1.182 4.701-.07 6.983l-2.434 4.088c-1.286 2.181-3.685 3.543-6.154 3.543-1.217 0-2.573-.34-3.685-1.022-.904-.579-1.947-.783-3.06-.783-3.442 0-6.328 2.827-6.432 6.2 0 3.917-3.199 6.983-7.197 6.983h-4.729c-4.033 0-7.232-3.066-7.232-6.983-.07-3.373-2.955-6.2-6.397-6.2-1.148 0-2.191.204-3.06.783-1.113.682-2.504 1.022-3.686 1.022-2.503 0-4.902-1.362-6.189-3.543l-2.399-4.088c-1.286-2.214-1.356-4.871-.07-6.983.557-1.022 1.6-2.044 2.782-2.691.974-.477 1.6-1.261 2.19-2.181 1.74-2.929.696-6.779-2.26-8.516-3.441-1.942-4.554-6.268-2.572-9.641l2.33-4.02a7.223 7.223 0 019.804-2.589c3.025 1.636 6.954.545 8.727-2.35.557-.954.87-1.976.8-2.998a6.086 6.086 0 01.973-3.611c1.287-2.112 3.616-3.475 6.155-3.543h4.902c2.573 0 4.902 1.43 6.189 3.543.626 1.022 1.043 2.282.939 3.61-.07 1.023.243 2.045.799 2.999 1.774 2.895 5.703 3.986 8.762 2.35a7.182 7.182 0 019.77 2.59l2.33 4.019c2.016 3.373.904 7.699-2.573 9.641-2.955 1.737-3.999 5.587-2.225 8.516.556.92 1.182 1.704 2.155 2.181zm-38.419-5.349c0 5.349 4.415 9.607 9.874 9.607 5.459 0 9.77-4.258 9.77-9.607 0-5.348-4.311-9.64-9.77-9.64s-9.874 4.292-9.874 9.64z" stroke="#fff" stroke-width="1.366"/></g><g filter="url(#filter5_b_764_29)"><path fill-rule="evenodd" clip-rule="evenodd" d="M143.01 121.643c1.216.647 2.154 1.667 2.815 2.688 1.286 2.109 1.181 4.694-.07 6.974l-2.433 4.082c-1.286 2.177-3.684 3.538-6.151 3.538-1.217 0-2.572-.34-3.685-1.021-.903-.578-1.946-.782-3.058-.782-3.441 0-6.326 2.823-6.43 6.191 0 3.912-3.198 6.974-7.194 6.974h-4.727c-4.032 0-7.23-3.062-7.23-6.974-.069-3.368-2.954-6.191-6.395-6.191-1.147 0-2.19.204-3.058.782-1.112.681-2.503 1.021-3.684 1.021-2.503 0-4.9-1.361-6.187-3.538l-2.398-4.082c-1.286-2.212-1.356-4.865-.07-6.974.556-1.021 1.6-2.041 2.78-2.688.974-.476 1.6-1.258 2.19-2.177 1.738-2.925.696-6.769-2.259-8.504-3.44-1.939-4.553-6.26-2.572-9.628l2.33-4.014a7.224 7.224 0 019.8-2.585c3.024 1.633 6.951.544 8.724-2.347.556-.953.869-1.974.799-2.994a6.072 6.072 0 01.974-3.606c1.286-2.11 3.614-3.47 6.151-3.538h4.901c2.572 0 4.901 1.429 6.187 3.538.625 1.02 1.042 2.28.938 3.606-.07 1.02.243 2.041.799 2.993 1.773 2.892 5.7 3.98 8.759 2.348a7.182 7.182 0 019.766 2.585l2.329 4.014c2.016 3.368.904 7.689-2.572 9.628-2.954 1.735-3.997 5.579-2.224 8.504.556.919 1.181 1.701 2.155 2.177zm-38.406-5.341c0 5.341 4.414 9.594 9.871 9.594 5.456 0 9.766-4.253 9.766-9.594 0-5.34-4.31-9.627-9.766-9.627-5.457 0-9.871 4.287-9.871 9.627z" fill="#5B1ED0" fill-opacity=".01"/></g><defs><filter id="filter0_f_764_29" x="52.692" y="52.817" width="123.508" height="126.999" filterUnits="userSpaceOnUse" color-interpolation-filters="sRGB"><feFlood flood-opacity="0" result="BackgroundImageFix"/><feBlend in="SourceGraphic" in2="BackgroundImageFix" result="shape"/><feGaussianBlur stdDeviation="13.266" result="effect1_foregroundBlur_764_29"/></filter><filter id="filter1_f_764_29" x=".312" y=".437" width="228.268" height="231.758" filterUnits="userSpaceOnUse" color-interpolation-filters="sRGB"><feFlood flood-opacity="0" result="BackgroundImageFix"/><feBlend in="SourceGraphic" in2="BackgroundImageFix" result="shape"/><feGaussianBlur stdDeviation="39.797" result="effect1_foregroundBlur_764_29"/></filter><filter id="filter2_ddi_764_29" x="45.415" y="72.072" width="138.061" height="141.552" filterUnits="userSpaceOnUse" color-interpolation-filters="sRGB"><feFlood flood-opacity="0" result="BackgroundImageFix"/><feColorMatrix in="SourceAlpha" values="0 0 0 0 0 0 0 0 0 0 0 0 0 0 0 0 0 0 127 0" result="hardAlpha"/><feOffset dy="17.245"/><feGaussianBlur stdDeviation="6.633"/><feColorMatrix values="0 0 0 0 0.114706 0 0 0 0 0.0382353 0 0 0 0 0.261765 0 0 0 0.7 0"/><feBlend mode="multiply" in2="BackgroundImageFix" result="effect1_dropShadow_764_29"/><feColorMatrix in="SourceAlpha" values="0 0 0 0 0 0 0 0 0 0 0 0 0 0 0 0 0 0 127 0" result="hardAlpha"/><feOffset dy="26.531"/><feGaussianBlur stdDeviation="17.245"/><feColorMatrix values="0 0 0 0 0.229412 0 0 0 0 0.0764706 0 0 0 0 0.523529 0 0 0 1 0"/><feBlend mode="color-dodge" in2="effect1_dropShadow_764_29" result="effect2_dropShadow_764_29"/><feBlend in="SourceGraphic" in2="effect2_dropShadow_764_29" result="shape"/><feColorMatrix in="SourceAlpha" values="0 0 0 0 0 0 0 0 0 0 0 0 0 0 0 0 0 0 127 0" result="hardAlpha"/><feOffset dx="-1.725" dy="3.449"/><feGaussianBlur stdDeviation=".862"/><feComposite in2="hardAlpha" operator="arithmetic" k2="-1" k3="1"/><feColorMatrix values="0 0 0 0 1 0 0 0 0 1 0 0 0 0 1 0 0 0 0.5 0"/><feBlend in2="shape" result="effect3_innerShadow_764_29"/></filter><filter id="filter3_f_764_29" x="80.077" y="80.202" width="68.739" height="72.229" filterUnits="userSpaceOnUse" color-interpolation-filters="sRGB"><feFlood flood-opacity="0" result="BackgroundImageFix"/><feBlend in="SourceGraphic" in2="BackgroundImageFix" result="shape"/><feGaussianBlur stdDeviation=".341" result="effect1_foregroundBlur_764_29"/></filter><filter id="filter4_f_764_29" x="80.987" y="81.112" width="66.918" height="70.408" filterUnits="userSpaceOnUse" color-interpolation-filters="sRGB"><feFlood flood-opacity="0" result="BackgroundImageFix"/><feBlend in="SourceGraphic" in2="BackgroundImageFix" result="shape"/><feGaussianBlur stdDeviation=".228" result="effect1_foregroundBlur_764_29"/></filter><filter id="filter5_b_764_29" x="66.125" y="66.25" width="96.618" height="100.037" filterUnits="userSpaceOnUse" color-interpolation-filters="sRGB"><feFlood flood-opacity="0" result="BackgroundImageFix"/><feGaussianBlur in="BackgroundImage" stdDeviation="8"/><feComposite in2="SourceAlpha" operator="in" result="effect1_backgroundBlur_764_29"/><feBlend in="SourceGraphic" in2="effect1_backgroundBlur_764_29" result="shape"/></filter></defs></svg>