<svg width="233" height="233" fill="none" xmlns="http://www.w3.org/2000/svg"><g style="mix-blend-mode:hard-light" filter="url(#filter0_f_764_43)" stroke="#773EE3" stroke-width="4.438"><path d="M117.382 82.964a2.804 2.804 0 011.998-.711c15.551.466 28.547 11.77 30.903 26.877a.834.834 0 010 .273c.05.715-.191 1.42-.671 1.959-.48.54-1.159.87-1.887.916l-26.127 1.725a3.114 3.114 0 01-2.36-.784 3 3 0 01-.998-2.242l-1.756-25.697v-.424a2.705 2.705 0 01.898-1.892z"/><path d="M115.59 120.723l22.646-1.453.154.061c.972.015 1.899.41 2.575 1.097a3.571 3.571 0 011.03 2.565c-.893 13.02-10.426 23.899-23.4 26.702-12.974 2.803-26.274-3.144-32.644-14.595a28.007 28.007 0 01-3.482-10.685 20.296 20.296 0 01-.215-3.359c.043-13.845 9.887-25.796 23.662-28.724 1.667-.313 3.339.521 4.067 2.028.181.273.326.568.431.878.258 3.99.526 7.944.793 11.881.211 3.109.421 6.207.624 9.306a6.44 6.44 0 00.339 2.149c.553 1.363 1.929 2.227 3.42 2.149z"/></g><g style="mix-blend-mode:hard-light" filter="url(#filter1_f_764_43)" stroke="#7942E3" stroke-width="5.804"><path d="M117.382 82.964a2.804 2.804 0 011.998-.711c15.551.466 28.547 11.77 30.903 26.877a.834.834 0 010 .273c.05.715-.191 1.42-.671 1.959-.48.54-1.159.87-1.887.916l-26.127 1.725a3.114 3.114 0 01-2.36-.784 3 3 0 01-.998-2.242l-1.756-25.697v-.424a2.705 2.705 0 01.898-1.892z"/><path d="M115.59 120.723l22.646-1.453.154.061c.972.015 1.899.41 2.575 1.097a3.571 3.571 0 011.03 2.565c-.893 13.02-10.426 23.899-23.4 26.702-12.974 2.803-26.274-3.144-32.644-14.595a28.007 28.007 0 01-3.482-10.685 20.296 20.296 0 01-.215-3.359c.043-13.845 9.887-25.796 23.662-28.724 1.667-.313 3.339.521 4.067 2.028.181.273.326.568.431.878.258 3.99.526 7.944.793 11.881.211 3.109.421 6.207.624 9.306a6.44 6.44 0 00.339 2.149c.553 1.363 1.929 2.227 3.42 2.149z"/></g><g style="mix-blend-mode:hard-light" filter="url(#filter2_ddi_764_43)" stroke="#8350E5" stroke-opacity=".2" stroke-width="4.438"><path d="M117.382 82.964a2.804 2.804 0 011.998-.711c15.551.466 28.547 11.77 30.903 26.877a.834.834 0 010 .273c.05.715-.191 1.42-.671 1.959-.48.54-1.159.87-1.887.916l-26.127 1.725a3.114 3.114 0 01-2.36-.784 3 3 0 01-.998-2.242l-1.756-25.697v-.424a2.705 2.705 0 01.898-1.892z"/><path d="M115.59 120.723l22.646-1.453.154.061c.972.015 1.899.41 2.575 1.097a3.571 3.571 0 011.03 2.565c-.893 13.02-10.426 23.899-23.4 26.702-12.974 2.803-26.274-3.144-32.644-14.595a28.007 28.007 0 01-3.482-10.685 20.296 20.296 0 01-.215-3.359c.043-13.845 9.887-25.796 23.662-28.724 1.667-.313 3.339.521 4.067 2.028.181.273.326.568.431.878.258 3.99.526 7.944.793 11.881.211 3.109.421 6.207.624 9.306a6.44 6.44 0 00.339 2.149c.553 1.363 1.929 2.227 3.42 2.149z"/></g><g filter="url(#filter3_f_764_43)" stroke="#8350E5" stroke-width="2.731"><path d="M117.382 82.964a2.804 2.804 0 011.998-.711c15.551.466 28.547 11.77 30.903 26.877a.834.834 0 010 .273c.05.715-.191 1.42-.671 1.959-.48.54-1.159.87-1.887.916l-26.127 1.725a3.114 3.114 0 01-2.36-.784 3 3 0 01-.998-2.242l-1.756-25.697v-.424a2.705 2.705 0 01.898-1.892z"/><path d="M115.59 120.723l22.646-1.453.154.061c.972.015 1.899.41 2.575 1.097a3.571 3.571 0 011.03 2.565c-.893 13.02-10.426 23.899-23.4 26.702-12.974 2.803-26.274-3.144-32.644-14.595a28.007 28.007 0 01-3.482-10.685 20.296 20.296 0 01-.215-3.359c.043-13.845 9.887-25.796 23.662-28.724 1.667-.313 3.339.521 4.067 2.028.181.273.326.568.431.878.258 3.99.526 7.944.793 11.881.211 3.109.421 6.207.624 9.306a6.44 6.44 0 00.339 2.149c.553 1.363 1.929 2.227 3.42 2.149z"/></g><g filter="url(#filter4_f_764_43)" stroke="#fff" stroke-width="1.366"><path d="M117.382 82.964a2.804 2.804 0 011.998-.711c15.551.466 28.547 11.77 30.903 26.877a.834.834 0 010 .273c.05.715-.191 1.42-.671 1.959-.48.54-1.159.87-1.887.916l-26.127 1.725a3.114 3.114 0 01-2.36-.784 3 3 0 01-.998-2.242l-1.756-25.697v-.424a2.705 2.705 0 01.898-1.892z"/><path d="M115.59 120.723l22.646-1.453.154.061c.972.015 1.899.41 2.575 1.097a3.571 3.571 0 011.03 2.565c-.893 13.02-10.426 23.899-23.4 26.702-12.974 2.803-26.274-3.144-32.644-14.595a28.007 28.007 0 01-3.482-10.685 20.296 20.296 0 01-.215-3.359c.043-13.845 9.887-25.796 23.662-28.724 1.667-.313 3.339.521 4.067 2.028.181.273.326.568.431.878.258 3.99.526 7.944.793 11.881.211 3.109.421 6.207.624 9.306a6.44 6.44 0 00.339 2.149c.553 1.363 1.929 2.227 3.42 2.149z"/></g><g filter="url(#filter5_b_764_43)" fill="#5B1ED0" fill-opacity=".01"><path d="M117.369 82.963a2.804 2.804 0 011.997-.71c15.545.465 28.537 11.753 30.891 26.84a.828.828 0 010 .272 2.656 2.656 0 01-.67 1.957 2.761 2.761 0 01-1.886.914l-26.117 1.723a3.117 3.117 0 01-2.36-.783 2.995 2.995 0 01-.997-2.24l-1.756-25.66v-.424a2.7 2.7 0 01.898-1.889z"/><path d="M115.578 120.669l22.637-1.451.154.061c.972.015 1.898.41 2.574 1.096a3.56 3.56 0 011.029 2.561c-.892 13.002-10.422 23.866-23.391 26.664-12.969 2.799-26.264-3.139-32.632-14.574a27.953 27.953 0 01-3.48-10.67 20.252 20.252 0 01-.215-3.355c.042-13.825 9.883-25.76 23.653-28.683 1.667-.312 3.338.52 4.065 2.025.182.273.326.567.432.876.258 3.986.526 7.934.792 11.865.211 3.105.421 6.199.624 9.293-.01.729.104 1.454.339 2.146.553 1.361 1.928 2.224 3.419 2.146z"/></g><defs><filter id="filter0_f_764_43" x=".437" y=".437" width="231.67" height="231.758" filterUnits="userSpaceOnUse" color-interpolation-filters="sRGB"><feFlood flood-opacity="0" result="BackgroundImageFix"/><feBlend in="SourceGraphic" in2="BackgroundImageFix" result="shape"/><feGaussianBlur stdDeviation="39.797" result="effect1_foregroundBlur_764_43"/></filter><filter id="filter1_f_764_43" x="52.817" y="52.817" width="126.91" height="126.998" filterUnits="userSpaceOnUse" color-interpolation-filters="sRGB"><feFlood flood-opacity="0" result="BackgroundImageFix"/><feBlend in="SourceGraphic" in2="BackgroundImageFix" result="shape"/><feGaussianBlur stdDeviation="13.266" result="effect1_foregroundBlur_764_43"/></filter><filter id="filter2_ddi_764_43" x="45.54" y="72.072" width="141.463" height="141.552" filterUnits="userSpaceOnUse" color-interpolation-filters="sRGB"><feFlood flood-opacity="0" result="BackgroundImageFix"/><feColorMatrix in="SourceAlpha" values="0 0 0 0 0 0 0 0 0 0 0 0 0 0 0 0 0 0 127 0" result="hardAlpha"/><feOffset dy="17.245"/><feGaussianBlur stdDeviation="6.633"/><feColorMatrix values="0 0 0 0 0.114706 0 0 0 0 0.0382353 0 0 0 0 0.261765 0 0 0 0.7 0"/><feBlend mode="multiply" in2="BackgroundImageFix" result="effect1_dropShadow_764_43"/><feColorMatrix in="SourceAlpha" values="0 0 0 0 0 0 0 0 0 0 0 0 0 0 0 0 0 0 127 0" result="hardAlpha"/><feOffset dy="26.531"/><feGaussianBlur stdDeviation="17.245"/><feColorMatrix values="0 0 0 0 0.229412 0 0 0 0 0.0764706 0 0 0 0 0.523529 0 0 0 1 0"/><feBlend mode="color-dodge" in2="effect1_dropShadow_764_43" result="effect2_dropShadow_764_43"/><feBlend in="SourceGraphic" in2="effect2_dropShadow_764_43" result="shape"/><feColorMatrix in="SourceAlpha" values="0 0 0 0 0 0 0 0 0 0 0 0 0 0 0 0 0 0 127 0" result="hardAlpha"/><feOffset dx="-1.725" dy="3.449"/><feGaussianBlur stdDeviation=".862"/><feComposite in2="hardAlpha" operator="arithmetic" k2="-1" k3="1"/><feColorMatrix values="0 0 0 0 1 0 0 0 0 1 0 0 0 0 1 0 0 0 0.5 0"/><feBlend in2="shape" result="effect3_innerShadow_764_43"/></filter><filter id="filter3_f_764_43" x="80.202" y="80.202" width="72.14" height="72.229" filterUnits="userSpaceOnUse" color-interpolation-filters="sRGB"><feFlood flood-opacity="0" result="BackgroundImageFix"/><feBlend in="SourceGraphic" in2="BackgroundImageFix" result="shape"/><feGaussianBlur stdDeviation=".341" result="effect1_foregroundBlur_764_43"/></filter><filter id="filter4_f_764_43" x="81.112" y="81.112" width="70.32" height="70.408" filterUnits="userSpaceOnUse" color-interpolation-filters="sRGB"><feFlood flood-opacity="0" result="BackgroundImageFix"/><feBlend in="SourceGraphic" in2="BackgroundImageFix" result="shape"/><feGaussianBlur stdDeviation=".228" result="effect1_foregroundBlur_764_43"/></filter><filter id="filter5_b_764_43" x="66.25" y="66.25" width="100.018" height="100.037" filterUnits="userSpaceOnUse" color-interpolation-filters="sRGB"><feFlood flood-opacity="0" result="BackgroundImageFix"/><feGaussianBlur in="BackgroundImage" stdDeviation="8"/><feComposite in2="SourceAlpha" operator="in" result="effect1_backgroundBlur_764_43"/><feBlend in="SourceGraphic" in2="effect1_backgroundBlur_764_43" result="shape"/></filter></defs></svg>