<svg width="233" height="233" fill="none" xmlns="http://www.w3.org/2000/svg"><g style="mix-blend-mode:hard-light" filter="url(#filter0_f_764_95)" stroke="#773EE3" stroke-width="4.438"><path d="M133.896 90.46c0-4.53 3.674-8.21 8.199-8.21s8.199 3.68 8.199 8.21c0 4.53-3.674 8.21-8.199 8.21s-8.199-3.68-8.199-8.21z"/><path clip-rule="evenodd" d="M128.01 88.315a16.062 16.062 0 00-.205 2.555c0 7.665 6.192 13.861 13.813 13.861.851 0 1.667-.098 2.518-.235v27.488c0 11.552-6.804 18.399-18.372 18.399h-25.139c-11.57 0-18.375-6.847-18.375-18.399v-25.205c0-11.583 6.804-18.464 18.375-18.464h27.385zm-7.213 37.401l9.832-12.703-.136.068c.545-.75.647-1.703.272-2.555-.37-.852-1.19-1.431-2.072-1.499a2.614 2.614 0 00-2.385 1.056l-8.229 10.663-9.428-7.427a2.69 2.69 0 00-1.939-.545 2.637 2.637 0 00-1.701 1.019l-10.067 13.119-.208.306c-.578 1.087-.306 2.484.715 3.237.476.306.986.511 1.565.511.785.034 1.53-.378 2.007-1.022l8.539-11.007 9.697 7.293.306.201c1.089.58 2.449.31 3.232-.715z"/></g><g style="mix-blend-mode:hard-light" filter="url(#filter1_f_764_95)" stroke="#7942E3" stroke-width="5.804"><path d="M133.896 90.46c0-4.53 3.674-8.21 8.199-8.21s8.199 3.68 8.199 8.21c0 4.53-3.674 8.21-8.199 8.21s-8.199-3.68-8.199-8.21z"/><path clip-rule="evenodd" d="M128.01 88.315a16.062 16.062 0 00-.205 2.555c0 7.665 6.192 13.861 13.813 13.861.851 0 1.667-.098 2.518-.235v27.488c0 11.552-6.804 18.399-18.372 18.399h-25.139c-11.57 0-18.375-6.847-18.375-18.399v-25.205c0-11.583 6.804-18.464 18.375-18.464h27.385zm-7.213 37.401l9.832-12.703-.136.068c.545-.75.647-1.703.272-2.555-.37-.852-1.19-1.431-2.072-1.499a2.614 2.614 0 00-2.385 1.056l-8.229 10.663-9.428-7.427a2.69 2.69 0 00-1.939-.545 2.637 2.637 0 00-1.701 1.019l-10.067 13.119-.208.306c-.578 1.087-.306 2.484.715 3.237.476.306.986.511 1.565.511.785.034 1.53-.378 2.007-1.022l8.539-11.007 9.697 7.293.306.201c1.089.58 2.449.31 3.232-.715z"/></g><g style="mix-blend-mode:hard-light" filter="url(#filter2_ddi_764_95)" stroke="#8350E5" stroke-opacity=".2" stroke-width="4.438"><path d="M133.896 90.46c0-4.53 3.674-8.21 8.199-8.21s8.199 3.68 8.199 8.21c0 4.53-3.674 8.21-8.199 8.21s-8.199-3.68-8.199-8.21z"/><path clip-rule="evenodd" d="M128.01 88.315a16.062 16.062 0 00-.205 2.555c0 7.665 6.192 13.861 13.813 13.861.851 0 1.667-.098 2.518-.235v27.488c0 11.552-6.804 18.399-18.372 18.399h-25.139c-11.57 0-18.375-6.847-18.375-18.399v-25.205c0-11.583 6.804-18.464 18.375-18.464h27.385zm-7.213 37.401l9.832-12.703-.136.068c.545-.75.647-1.703.272-2.555-.37-.852-1.19-1.431-2.072-1.499a2.614 2.614 0 00-2.385 1.056l-8.229 10.663-9.428-7.427a2.69 2.69 0 00-1.939-.545 2.637 2.637 0 00-1.701 1.019l-10.067 13.119-.208.306c-.578 1.087-.306 2.484.715 3.237.476.306.986.511 1.565.511.785.034 1.53-.378 2.007-1.022l8.539-11.007 9.697 7.293.306.201c1.089.58 2.449.31 3.232-.715z"/></g><g filter="url(#filter3_f_764_95)" stroke="#8350E5" stroke-width="2.731"><path d="M133.896 90.46c0-4.53 3.674-8.21 8.199-8.21s8.199 3.68 8.199 8.21c0 4.53-3.674 8.21-8.199 8.21s-8.199-3.68-8.199-8.21z"/><path clip-rule="evenodd" d="M128.01 88.315a16.062 16.062 0 00-.205 2.555c0 7.665 6.192 13.861 13.813 13.861.851 0 1.667-.098 2.518-.235v27.488c0 11.552-6.804 18.399-18.372 18.399h-25.139c-11.57 0-18.375-6.847-18.375-18.399v-25.205c0-11.583 6.804-18.464 18.375-18.464h27.385zm-7.213 37.401l9.832-12.703-.136.068c.545-.75.647-1.703.272-2.555-.37-.852-1.19-1.431-2.072-1.499a2.614 2.614 0 00-2.385 1.056l-8.229 10.663-9.428-7.427a2.69 2.69 0 00-1.939-.545 2.637 2.637 0 00-1.701 1.019l-10.067 13.119-.208.306c-.578 1.087-.306 2.484.715 3.237.476.306.986.511 1.565.511.785.034 1.53-.378 2.007-1.022l8.539-11.007 9.697 7.293.306.201c1.089.58 2.449.31 3.232-.715z"/></g><g filter="url(#filter4_f_764_95)" stroke="#fff" stroke-width="1.366"><path d="M133.896 90.46c0-4.53 3.674-8.21 8.199-8.21s8.199 3.68 8.199 8.21c0 4.53-3.674 8.21-8.199 8.21s-8.199-3.68-8.199-8.21z"/><path clip-rule="evenodd" d="M128.01 88.315a16.062 16.062 0 00-.205 2.555c0 7.665 6.192 13.861 13.813 13.861.851 0 1.667-.098 2.518-.235v27.488c0 11.552-6.804 18.399-18.372 18.399h-25.139c-11.57 0-18.375-6.847-18.375-18.399v-25.205c0-11.583 6.804-18.464 18.375-18.464h27.385zm-7.213 37.401l9.832-12.703-.136.068c.545-.75.647-1.703.272-2.555-.37-.852-1.19-1.431-2.072-1.499a2.614 2.614 0 00-2.385 1.056l-8.229 10.663-9.428-7.427a2.69 2.69 0 00-1.939-.545 2.637 2.637 0 00-1.701 1.019l-10.067 13.119-.208.306c-.578 1.087-.306 2.484.715 3.237.476.306.986.511 1.565.511.785.034 1.53-.378 2.007-1.022l8.539-11.007 9.697 7.293.306.201c1.089.58 2.449.31 3.232-.715z"/></g><g filter="url(#filter5_b_764_95)" fill="#5B1ED0" fill-opacity=".01"><path d="M133.876 90.448c0-4.524 3.673-8.198 8.197-8.198 4.523 0 8.196 3.674 8.196 8.198 0 4.525-3.673 8.199-8.196 8.199-4.524 0-8.197-3.674-8.197-8.199z"/><path fill-rule="evenodd" clip-rule="evenodd" d="M127.992 88.306c-.136.85-.204 1.701-.204 2.552 0 7.654 6.19 13.842 13.808 13.842.85 0 1.667-.099 2.517-.235v27.45c0 11.535-6.802 18.373-18.365 18.373h-25.13c-11.566 0-18.368-6.838-18.368-18.373v-25.171c0-11.566 6.802-18.438 18.368-18.438h27.374zm-7.21 37.349l9.829-12.685-.136.068a2.55 2.55 0 00.272-2.552c-.371-.85-1.19-1.428-2.071-1.497a2.613 2.613 0 00-2.384 1.055l-8.227 10.648-9.424-7.416a2.683 2.683 0 00-1.938-.544 2.633 2.633 0 00-1.701 1.017l-10.063 13.1-.208.306c-.578 1.086-.306 2.48.715 3.232.476.306.986.51 1.564.51.786.034 1.53-.377 2.007-1.02l8.536-10.992 9.692 7.284.307.201a2.543 2.543 0 003.23-.715z"/></g><defs><filter id="filter0_f_764_95" x=".437" y=".437" width="231.67" height="231.759" filterUnits="userSpaceOnUse" color-interpolation-filters="sRGB"><feFlood flood-opacity="0" result="BackgroundImageFix"/><feBlend in="SourceGraphic" in2="BackgroundImageFix" result="shape"/><feGaussianBlur stdDeviation="39.797" result="effect1_foregroundBlur_764_95"/></filter><filter id="filter1_f_764_95" x="52.817" y="52.817" width="126.91" height="127" filterUnits="userSpaceOnUse" color-interpolation-filters="sRGB"><feFlood flood-opacity="0" result="BackgroundImageFix"/><feBlend in="SourceGraphic" in2="BackgroundImageFix" result="shape"/><feGaussianBlur stdDeviation="13.266" result="effect1_foregroundBlur_764_95"/></filter><filter id="filter2_ddi_764_95" x="45.54" y="72.072" width="141.464" height="141.553" filterUnits="userSpaceOnUse" color-interpolation-filters="sRGB"><feFlood flood-opacity="0" result="BackgroundImageFix"/><feColorMatrix in="SourceAlpha" values="0 0 0 0 0 0 0 0 0 0 0 0 0 0 0 0 0 0 127 0" result="hardAlpha"/><feOffset dy="17.245"/><feGaussianBlur stdDeviation="6.633"/><feColorMatrix values="0 0 0 0 0.114706 0 0 0 0 0.0382353 0 0 0 0 0.261765 0 0 0 0.7 0"/><feBlend mode="multiply" in2="BackgroundImageFix" result="effect1_dropShadow_764_95"/><feColorMatrix in="SourceAlpha" values="0 0 0 0 0 0 0 0 0 0 0 0 0 0 0 0 0 0 127 0" result="hardAlpha"/><feOffset dy="26.531"/><feGaussianBlur stdDeviation="17.245"/><feColorMatrix values="0 0 0 0 0.229412 0 0 0 0 0.0764706 0 0 0 0 0.523529 0 0 0 1 0"/><feBlend mode="color-dodge" in2="effect1_dropShadow_764_95" result="effect2_dropShadow_764_95"/><feBlend in="SourceGraphic" in2="effect2_dropShadow_764_95" result="shape"/><feColorMatrix in="SourceAlpha" values="0 0 0 0 0 0 0 0 0 0 0 0 0 0 0 0 0 0 127 0" result="hardAlpha"/><feOffset dx="-1.725" dy="3.449"/><feGaussianBlur stdDeviation=".862"/><feComposite in2="hardAlpha" operator="arithmetic" k2="-1" k3="1"/><feColorMatrix values="0 0 0 0 1 0 0 0 0 1 0 0 0 0 1 0 0 0 0.5 0"/><feBlend in2="shape" result="effect3_innerShadow_764_95"/></filter><filter id="filter3_f_764_95" x="80.202" y="80.202" width="72.141" height="72.23" filterUnits="userSpaceOnUse" color-interpolation-filters="sRGB"><feFlood flood-opacity="0" result="BackgroundImageFix"/><feBlend in="SourceGraphic" in2="BackgroundImageFix" result="shape"/><feGaussianBlur stdDeviation=".341" result="effect1_foregroundBlur_764_95"/></filter><filter id="filter4_f_764_95" x="81.112" y="81.112" width="70.32" height="70.409" filterUnits="userSpaceOnUse" color-interpolation-filters="sRGB"><feFlood flood-opacity="0" result="BackgroundImageFix"/><feBlend in="SourceGraphic" in2="BackgroundImageFix" result="shape"/><feGaussianBlur stdDeviation=".228" result="effect1_foregroundBlur_764_95"/></filter><filter id="filter5_b_764_95" x="66.25" y="66.25" width="100.019" height="100.038" filterUnits="userSpaceOnUse" color-interpolation-filters="sRGB"><feFlood flood-opacity="0" result="BackgroundImageFix"/><feGaussianBlur in="BackgroundImage" stdDeviation="8"/><feComposite in2="SourceAlpha" operator="in" result="effect1_backgroundBlur_764_95"/><feBlend in="SourceGraphic" in2="effect1_backgroundBlur_764_95" result="shape"/></filter></defs></svg>