<svg width="18" height="18" fill="none" xmlns="http://www.w3.org/2000/svg"><path d="M3.183 7c0-.508.013-.901.124-1.422C3.99 2.5 6.957.51 10.142 1.066c2.39.417 3.942 1.833 4.694 4.077.217.653.223 1.089.235 1.797.013.58.975.568.975.006 0-.509-.012-.847-.1-1.368-.434-2.57-2.55-4.779-5.164-5.377A7.418 7.418 0 009.695.013c-.509-.036-.962.012-1.272.036a6.22 6.22 0 00-1.956.484C4.245 1.49 2.86 3.128 2.34 5.445c-.124.563-.143.944-.143 1.53.006.6.987.588.987.025zm.962 1.18c-.037-.303-.21-.454-.521-.46H3.3l-1.328.006C.793 7.708.098 8.676.048 9.462c-.068 1.113-.056 1.276-.012 2.39.037.992.75 1.687 1.775 1.772.59.048 1.186.018 1.782.018.403 0 .571-.163.571-.556v-4.61c-.006-.097-.006-.2-.019-.297zm-.962 2.032c0 .768-.006 1.543 0 2.31 0 .128-.03.17-.167.17-.348-.012-.702 0-1.056-.006-.559-.006-.962-.405-.962-.95V9.74c0-.665.416-1.07 1.093-1.07.298 0 .602.012.9-.007.167-.006.198.049.198.2-.006.768-.006.587-.006 1.35zM17.61 8.664c-.329-.515-.763-.89-1.415-.932a65.592 65.592 0 00-1.583-.012c-.236.006-.379.109-.46.32-.043.11-.043.218-.043.333v4.743c0 .35.174.526.54.532h.435c-.031.055-.037.079-.056.097-.726.89-1.676 1.367-2.843 1.452-.15.012-.218-.03-.261-.182a2.372 2.372 0 00-2.552-1.675c-.98.115-1.682.635-2.017 1.548-.335.92-.112 1.749.59 2.432 1.322 1.277 3.55.666 4.004-1.083.03-.12.093-.108.174-.108a4.908 4.908 0 002.551-.799c.633-.411 1.117-.956 1.515-1.585a.333.333 0 01.267-.17c.956-.108 1.533-.737 1.54-1.681.006-.938.006-.932 0-1.87a2.397 2.397 0 00-.386-1.36zm-7.952 8.372c-.788.006-1.459-.63-1.459-1.398 0-.762.64-1.379 1.428-1.379.8 0 1.415.623 1.422 1.428-.007.738-.621 1.337-1.391 1.349zm6.512-4.35c-.316.019-.64 0-.956.007-.149.005-.124-.085-.124-.17v-2.31c0-.769.006-.594-.006-1.368 0-.145.043-.181.186-.175.236.012.472.012.708 0 .316-.012.552.127.726.369.205.278.31.593.31.943v1.833c.007.575-.248.841-.844.871z" fill="#fff"/></svg>