<svg width="12" height="12" viewBox="0 0 18 17" fill="none" xmlns="http://www.w3.org/2000/svg"><path d="M16.35.036c-.15.075-.375.075-.525.15L1.65 5.136c-.45.15-.825.3-.9.825 0 .525.45.675.825.9C3.3 7.61 5.1 8.436 6.9 9.186c.525.225.825.525 1.05 1.05.75 1.8 1.575 3.6 2.4 5.4.15.375.375.825.9.825s.675-.45.825-.9l2.475-6.975c.9-2.475 1.725-4.95 2.55-7.425.225-.6-.075-1.125-.75-1.125zm-8.625 7.95c-1.35-.6-2.625-1.2-4.2-1.875 3.375-1.2 6.6-2.325 9.75-3.45 0 .075.075.075.075.15L8.325 7.836c-.225.225-.375.3-.6.15zM11.1 13.76c-.675-1.5-1.2-2.85-1.8-4.125-.15-.225-.15-.45.075-.675C11.1 7.31 12.75 5.586 14.55 4.01c-1.125 3.15-2.25 6.375-3.45 9.75z" fill="#fff"/></svg>