<svg width="56" height="56" fill="none" xmlns="http://www.w3.org/2000/svg"><path d="M45.057 16.8c-1.254.555-2.602.93-4.019 1.1a7.005 7.005 0 003.077-3.866 13.99 13.99 0 01-4.444 1.694 7.006 7.006 0 00-8.415-1.383 6.993 6.993 0 00-3.076 3.283 6.974 6.974 0 00-.435 4.473 19.908 19.908 0 01-7.991-2.119 19.87 19.87 0 01-6.436-5.18 6.971 6.971 0 00-.947 3.511 6.978 6.978 0 003.114 5.815 6.992 6.992 0 01-3.17-.874v.09c0 1.613.558 3.176 1.582 4.425a7.004 7.004 0 004.032 2.425 7.063 7.063 0 01-3.161.12 6.989 6.989 0 002.49 3.47 7.012 7.012 0 004.049 1.379 14.063 14.063 0 01-8.694 2.991c-.558 0-1.116-.032-1.67-.097a19.823 19.823 0 0010.727 3.138c12.876 0 19.915-10.643 19.915-19.874 0-.3-.007-.603-.02-.902a14.21 14.21 0 003.49-3.614l.002-.005z" fill="url(#paint0_linear_109_415)"/><g filter="url(#filter0_bii_109_415)"><circle cx="28" cy="28" r="28" fill="#2D303D" fill-opacity=".2"/></g><path d="M42.483 19.899a10.91 10.91 0 01-3.11.843 5.384 5.384 0 002.381-2.966 10.877 10.877 0 01-3.438 1.3 5.432 5.432 0 00-3.073-1.625 5.463 5.463 0 00-3.437.563 5.384 5.384 0 00-2.379 2.52 5.314 5.314 0 00-.337 3.433 15.498 15.498 0 01-6.182-1.626 15.348 15.348 0 01-4.979-3.976 5.318 5.318 0 00-.093 5.225 5.382 5.382 0 001.77 1.933 5.442 5.442 0 01-2.453-.671v.069a5.33 5.33 0 001.224 3.396 5.426 5.426 0 003.12 1.86 5.507 5.507 0 01-2.446.093 5.366 5.366 0 001.926 2.664 5.453 5.453 0 003.132 1.057 10.934 10.934 0 01-6.725 2.296c-.431 0-.863-.025-1.292-.075a15.425 15.425 0 008.299 2.409c9.96 0 15.406-8.168 15.406-15.252 0-.23-.006-.463-.017-.693a10.947 10.947 0 002.7-2.773l.003-.004z" fill="url(#paint1_linear_109_415)"/><defs><linearGradient id="paint0_linear_109_415" x1="12.607" y1="15.614" x2="31.913" y2="36.849" gradientUnits="userSpaceOnUse"><stop stop-color="#009EFF"/><stop offset="1" stop-color="#00FAFA"/></linearGradient><linearGradient id="paint1_linear_109_415" x1="17.379" y1="18.989" x2="32.184" y2="35.402" gradientUnits="userSpaceOnUse"><stop stop-color="#009EFF"/><stop offset="1" stop-color="#00FAFA"/></linearGradient><filter id="filter0_bii_109_415" x="-30" y="-30" width="116" height="116" filterUnits="userSpaceOnUse" color-interpolation-filters="sRGB"><feFlood flood-opacity="0" result="BackgroundImageFix"/><feGaussianBlur in="BackgroundImage" stdDeviation="15"/><feComposite in2="SourceAlpha" operator="in" result="effect1_backgroundBlur_109_415"/><feBlend in="SourceGraphic" in2="effect1_backgroundBlur_109_415" result="shape"/><feColorMatrix in="SourceAlpha" values="0 0 0 0 0 0 0 0 0 0 0 0 0 0 0 0 0 0 127 0" result="hardAlpha"/><feOffset dy="2"/><feGaussianBlur stdDeviation="2"/><feComposite in2="hardAlpha" operator="arithmetic" k2="-1" k3="1"/><feColorMatrix values="0 0 0 0 1 0 0 0 0 1 0 0 0 0 1 0 0 0 0.1 0"/><feBlend in2="shape" result="effect2_innerShadow_109_415"/><feColorMatrix in="SourceAlpha" values="0 0 0 0 0 0 0 0 0 0 0 0 0 0 0 0 0 0 127 0" result="hardAlpha"/><feOffset dy="-5"/><feGaussianBlur stdDeviation="6"/><feComposite in2="hardAlpha" operator="arithmetic" k2="-1" k3="1"/><feColorMatrix values="0 0 0 0 0.113725 0 0 0 0 0.631373 0 0 0 0 0.94902 0 0 0 0.35 0"/><feBlend in2="effect2_innerShadow_109_415" result="effect3_innerShadow_109_415"/></filter></defs></svg>