<svg width="56" height="56" fill="none" xmlns="http://www.w3.org/2000/svg"><g filter="url(#filter0_bii_0_1)"><circle cx="28" cy="28" r="28" fill="#2D303D" fill-opacity=".2"/></g><path d="M28 17.38c-12.969 0-13.195 1.153-13.195 10.16S15.03 37.7 28 37.7c12.968 0 13.195-1.153 13.195-10.16S40.968 17.38 28 17.38zm4.23 10.6l-5.926 2.766c-.518.24-.943-.029-.943-.601v-5.21c0-.571.425-.842.943-.602L32.23 27.1c.519.243.519.639 0 .882z" fill="url(#paint0_linear_0_1)"/><defs><linearGradient id="paint0_linear_0_1" x1="39.264" y1="16.092" x2="18.023" y2="37.012" gradientUnits="userSpaceOnUse"><stop stop-color="#EB0505"/><stop offset="1" stop-color="#CF1178"/></linearGradient><filter id="filter0_bii_0_1" x="-30" y="-30" width="116" height="116" filterUnits="userSpaceOnUse" color-interpolation-filters="sRGB"><feFlood flood-opacity="0" result="BackgroundImageFix"/><feGaussianBlur in="BackgroundImage" stdDeviation="15"/><feComposite in2="SourceAlpha" operator="in" result="effect1_backgroundBlur_0_1"/><feBlend in="SourceGraphic" in2="effect1_backgroundBlur_0_1" result="shape"/><feColorMatrix in="SourceAlpha" values="0 0 0 0 0 0 0 0 0 0 0 0 0 0 0 0 0 0 127 0" result="hardAlpha"/><feOffset dy="2"/><feGaussianBlur stdDeviation="2"/><feComposite in2="hardAlpha" operator="arithmetic" k2="-1" k3="1"/><feColorMatrix values="0 0 0 0 1 0 0 0 0 1 0 0 0 0 1 0 0 0 0.1 0"/><feBlend in2="shape" result="effect2_innerShadow_0_1"/><feColorMatrix in="SourceAlpha" values="0 0 0 0 0 0 0 0 0 0 0 0 0 0 0 0 0 0 127 0" result="hardAlpha"/><feOffset dy="-5"/><feGaussianBlur stdDeviation="6"/><feComposite in2="hardAlpha" operator="arithmetic" k2="-1" k3="1"/><feColorMatrix values="0 0 0 0 0.729481 0 0 0 0 0.0562308 0 0 0 0 0.0562308 0 0 0 0.35 0"/><feBlend in2="effect2_innerShadow_0_1" result="effect3_innerShadow_0_1"/></filter></defs></svg>