<svg width="64" height="64" xmlns="http://www.w3.org/2000/svg"><path d="M30 59V5a1 1 0 00-1-1H3a1 1 0 00-1 1v54a1 1 0 001 1h26a1 1 0 001-1zm-2-1H4V6h24v52zM61 4H35a1 1 0 00-1 1v54a1 1 0 001 1h26a1 1 0 001-1V5a1 1 0 00-1-1zm-1 2v25.003a.978.978 0 00-.316.048 36.514 36.514 0 01-4.217 1.128C54.318 30.271 51.417 29 48 29s-6.318 1.271-7.467 3.179a36.514 36.514 0 01-4.217-1.128.982.982 0 00-.316-.048V6h24zm-1.929 27.621L55.382 39H40.618l-2.689-5.379a39.273 39.273 0 0020.142 0zM42.82 32.567C43.818 31.698 45.669 31 48 31s4.182.698 5.18 1.567a37.37 37.37 0 01-10.36 0zM36 58V34.236l3.105 6.211c.17.339.516.553.895.553h16c.379 0 .725-.214.895-.553L60 34.236V58H36z"/><path d="M50 22h2v2h-2zm2-2h2v2h-2zm2 2h2v2h-2zm-2 2h2v2h-2zm-11-7h2v2h-2zm2-2h2v2h-2zm2 2h2v2h-2zm-2 2h2v2h-2zm-25 3h2v2h-2zm2-2h2v2h-2zm2 2h2v2h-2zm-2 2h2v2h-2zM9 17h2v2H9zm2-2h2v2h-2zm2 2h2v2h-2zm-2 2h2v2h-2zm5 24c4.411 0 8-3.589 8-8s-3.589-8-8-8-8 3.589-8 8 3.589 8 8 8zm0-14c3.309 0 6 2.691 6 6s-2.691 6-6 6-6-2.691-6-6 2.691-6 6-6z"/><path d="M14 38h4a1 1 0 001-1v-4a1 1 0 00-1-1h-4a1 1 0 00-1 1v4a1 1 0 001 1zm1-4h2v2h-2v-2z"/></svg>